<svg class="svg-icon" style="width:1em;height:1em;vertical-align:middle;fill:currentColor;overflow:hidden" viewBox="0 0 1024 1024" xmlns="http://www.w3.org/2000/svg"><path d="M132.8 837.824c-8.533 15.04-8.235 15.51 10.24 15.51h737.92c18.453 0 18.752-.513 10.24-15.51l-371.477-656c-8.406-14.87-7.04-14.87-15.446 0L132.8 837.803zm461.163-698.09 371.498 656c41.003 72.469-1.258 142.933-84.501 142.933H143.04c-83.307 0-125.461-70.507-84.48-142.891l371.477-656c41.088-72.597 122.88-72.576 163.947 0zM512 789.333A42.667 42.667 0 1 0 512 704a42.667 42.667 0 0 0 0 85.333zm-42.667-384v213.333a42.667 42.667 0 1 0 85.334 0V405.333a42.667 42.667 0 1 0-85.334 0z"/></svg>