<svg width="614.4" height="614.4" xmlns="http://www.w3.org/2000/svg"><path d="M412.34 591.005c-25.164-3.485-49.61-12.125-71.035-25.106l-8.034-4.868H193.367c-154.001 0-146.613.359-149.265-7.25-.754-2.16-1.363-11.07-1.363-19.929v-16.02l-17.7-.04c-18.459-.039-20.174-.457-22.904-5.582C1.088 510.244.74 453.196.74 283.955.74 59.21.75 58.295 3.207 51.727c2.87-7.672 11.882-16.62 18.93-18.796 2.42-.747 12.829-1.633 23.128-1.968l18.726-.61 1.35-5.846C68.736 9.8 81.458-.569 96.11-.569c14.548 0 28.822 12.157 31.267 26.629l.772 4.571h41.744l.73-3.3c2.635-11.9 7.355-18.816 16.081-23.566 19.274-10.49 42.962.73 46.356 21.956l.785 4.91h42.893l.027-3.3c.065-8.178 8.243-19.794 17.373-24.677 6.77-3.621 20.83-3.621 27.6 0 9.13 4.883 17.309 16.499 17.374 24.677l.026 3.3h42.894l.785-4.91C386.212 4.495 409.9-6.725 429.173 3.765c8.689 4.73 13.467 11.704 16.045 23.422l.695 3.157 18.913.527c16.259.453 19.775.905 25.055 3.223 7.138 3.134 12.307 8.139 16.254 15.737l2.804 5.4.34 96.829.341 96.829 11.33 5.965c15.44 8.128 31.791 20.691 44.746 34.38 57.722 60.991 65.48 152.968 18.826 223.197-26.132 39.337-66.003 66.129-113.644 76.365-12.757 2.74-45.716 3.984-58.539 2.209zm53.4-22.972c58.176-11.421 104.645-53.781 121.561-110.813 5.088-17.154 6.666-30.863 5.89-51.173-.898-23.48-4.314-38.202-13.743-59.216-21.558-48.046-67.442-82.815-120.483-91.297-14.932-2.388-42.204-1.751-56.226 1.313-41.287 9.023-77.067 33.445-100.184 68.384-18.87 28.517-26.67 56.977-25.464 92.891.908 27.033 5.127 43.73 16.854 66.71 32.17 63.033 102.074 96.888 171.794 83.201zM417.9 548.87c-56.085-7.203-102.86-48.644-116.3-103.039-11.576-46.847 3.07-98.056 37.657-131.663 26.66-25.905 58.422-38.737 95.881-38.737 36.974 0 68.157 12.43 94.532 37.682 25.079 24.012 38.893 52.463 42.119 86.744 1.074 11.414.237 30.883-1.699 39.506-4.372 19.478-13.897 40.693-24.813 55.269-29.601 39.523-78.806 60.475-127.377 54.238zm6.63-32.945c.392-12.207.54-12.82 3.775-15.6 4.29-3.687 9.365-3.698 13.631-.028 3.183 2.738 3.353 3.434 3.803 15.592l.471 12.727 4.964-.757c36.265-5.528 67.885-27.293 85.554-58.887 4.416-7.896 12.379-29.04 12.4-32.925.01-1.677-1.742-2.049-11.295-2.4-10.002-.368-11.663-.752-14.4-3.325-4.263-4.008-4.263-10.574-.001-14.582 2.797-2.63 4.308-2.949 15.763-3.323l12.67-.414-.782-9.364c-2.196-26.337-13.579-51.143-32.413-70.639-10.326-10.688-19.625-17.501-32.986-24.168-9.845-4.913-29.573-10.8-36.187-10.8h-3.334l-.412 11.905c-.369 10.644-.721 12.234-3.322 15-2.096 2.23-4.109 3.083-7.2 3.056-8.378-.075-10.89-4.651-10.89-19.84V297.03l-3.3.008c-1.816.005-7.78 1.082-13.253 2.394-34.03 8.159-64.091 32.784-78.314 64.153-5.231 11.536-9.445 27.268-10.306 38.48l-.764 9.937 12.874.414c12.389.398 12.984.54 15.768 3.78 3.93 4.571 3.848 10.32-.2 14.124-2.738 2.574-4.399 2.958-14.4 3.325-6.53.24-11.306.928-11.306 1.627 0 3.71 4.393 17.236 8.346 25.7 8.177 17.506 18.678 30.956 33.14 42.448 9.046 7.19 25.935 16.416 36.074 19.709 5.435 1.765 20.213 5.078 24.031 5.388.95.077 1.52-3.91 1.8-12.593zm6.122-83.326c-1.543-.62-7.805-8.802-14.7-19.207-9.438-14.24-12.014-19.02-12.014-22.298 0-8.098 8.806-12.767 15.385-8.159 1.496 1.048 6.13 7.006 10.3 13.24l7.58 11.337 28.068-23.452c15.437-12.899 29.293-23.778 30.79-24.176 4.386-1.167 9.966 1.867 11.886 6.462 1.54 3.685 1.494 4.508-.447 8.092-1.273 2.35-14.406 14.184-31.95 28.788-38.888 32.372-38.336 32.011-44.898 29.373zm-126.527 103.42a8759.664 8759.664 0 0 1-8.787-10.79l-6-7.378-112.5-.01-112.5-.01v21.6h242.574zm-28.587-39.134c0-.3-2.166-5.47-4.814-11.487-28.538-64.85-16.797-140.084 30.047-192.522 31.761-35.555 75.023-56.594 123.599-60.107 14.135-1.023 36.735 1.042 52.118 4.76l11.45 2.769V137.43H22.34v360h126.6c69.63 0 126.6-.246 126.6-.546zM84.804 410.158c-3.045-1.075-7.737-4.285-10.928-7.476-19.882-19.882-5.8-53.418 22.346-53.21 18.018.133 31.007 13.332 31.057 31.56.06 21.917-21.336 36.59-42.475 29.126zm19.754-23.518c2.814-4.017 2.227-9.636-1.382-13.245-9.231-9.231-22.914 3.695-14.813 13.994 3.961 5.036 12.417 4.645 16.195-.749zm86.596 23.813c-12.327-4.72-20.518-16.73-20.385-29.888.09-8.913 2.269-14.44 8.354-21.194 15.784-17.521 45.107-11.125 52.823 11.523 2.285 6.704 1.642 17.395-1.41 23.442-2.895 5.74-8.75 11.67-14.397 14.58-6.164 3.178-18.687 3.949-24.985 1.537zm18.367-22.802c4.869-5.183 2.365-15.284-4.197-16.931-12.296-3.086-19.302 13.23-8.093 18.849 4.717 2.364 8.876 1.715 12.29-1.918zM93.139 327.277c-12.314-1.664-22.268-9.278-26.332-20.142-3.1-8.284-3.12-14.27-.075-22.408 8.229-21.994 37.867-27.126 53.201-9.212 4.43 5.175 8.006 14.251 8.006 20.316 0 9.917-7.005 21.934-16.016 27.474-4.114 2.53-13.996 4.619-18.784 3.972zm9.508-23.753c7.424-6.246 3.203-17.773-6.508-17.773-10.74 0-14.207 14.035-4.8 19.43 3.829 2.196 7.341 1.681 11.308-1.657zm94.105 23.342c-15.195-2.655-25.87-15.071-25.958-30.192-.106-18.288 13.122-31.969 30.945-32.005 22.843-.046 38.42 23.497 28.971 43.787-6.437 13.824-19.543 20.93-33.958 18.41zm10.43-22.057c7.494-3.875 6.294-15.893-1.856-18.582-10.748-3.548-18.304 8.872-10.279 16.896 3.935 3.936 6.97 4.357 12.135 1.686zM86.998 241.374C75.502 237.266 67.89 229 65.308 217.816c-3.795-16.442 7.128-33.464 23.968-37.351 21.652-4.998 42.509 15.506 37.671 37.034-4.102 18.261-23.395 29.791-39.949 23.875zm16.396-22.888c6.471-6.472 1.906-17.455-7.255-17.455-9.16 0-13.725 10.983-7.254 17.455 2.033 2.033 4.28 2.945 7.254 2.945 2.975 0 5.221-.912 7.255-2.945zm87.404 22.132c-25.528-10.126-27.132-45.204-2.638-57.7 24.693-12.597 52.556 12.222 43.514 38.76-5.572 16.354-24.861 25.292-40.876 18.94zm18.194-21.928c2.444-2.102 3.187-3.841 3.187-7.459 0-9.297-10.847-13.665-17.476-7.036-9.36 9.36 4.232 23.146 14.29 14.495zm88.366 22.059c-21.554-7.444-27.6-35.274-11.302-52.026 4.966-5.104 14.828-9.292 21.883-9.292s16.918 4.188 21.884 9.292c16.607 17.07 9.787 45.843-12.43 52.44-8.058 2.393-12.15 2.309-20.035-.414zm17.812-22.35c6.223-6.624 1.75-17.368-7.23-17.368-3.135 0-5.193.863-7.231 3.033-6.223 6.623-1.75 17.367 7.23 17.367 3.135 0 5.193-.863 7.231-3.033zm172.77-130.86V59.246l-3.508-3.507-3.508-3.508h-34.766l-.41 12.506c-.369 11.286-.693 12.809-3.318 15.6l-2.909 3.094h-25.645c-25.629 0-25.648-.002-28.591-2.945-2.755-2.755-2.946-3.765-2.946-15.6V52.23h-43.2v12.438c0 10.767-.334 12.863-2.487 15.6l-2.487 3.162h-52.451l-2.488-3.162c-2.152-2.737-2.487-4.833-2.487-15.6V52.231h-43.2v12.655c0 11.835-.19 12.845-2.945 15.6-2.944 2.943-2.963 2.945-28.59 2.945h-25.646l-2.91-3.094c-2.625-2.791-2.949-4.314-3.318-15.6l-.41-12.506h-41.78V63.71c0 11.425-1.016 15.357-4.697 18.183-2.02 1.551-49.633 2.257-53.45.793-3.84-1.474-5.454-7.092-5.454-18.995V52.23H47.46c-16.938 0-20.525.714-23.582 4.696-1.052 1.37-1.473 9.894-1.5 30.404l-.039 28.5h465.6zm-381.6-42.563c0-17.569-.08-18.133-2.946-21-4.008-4.007-10.502-4.007-14.51 0-2.865 2.867-2.945 3.431-2.945 21v18.055h20.4zm106.61.15c-.39-17.02-.555-18.06-3.32-21-4.084-4.345-11.081-4.308-15.148.08-2.849 3.074-2.943 3.743-2.943 21v17.825h21.82zm105.79 1.783c0-21.472-1.813-25.802-10.8-25.802-8.988 0-10.8 4.33-10.8 25.802v16.122h21.6zm105.6-1.703c0-17.257-.094-17.926-2.943-21-4.067-4.388-11.064-4.425-15.148-.08-2.766 2.94-2.93 3.98-3.32 21l-.41 17.905h21.82z"/></svg>