<svg width="512" height="512" xmlns="http://www.w3.org/2000/svg"><path d="M120.564 510.947c-1.827-.907-4.527-3.23-6-5.16l-2.68-3.512-.287-35.33c-.217-26.872-.577-35.33-1.5-35.33-.667 0-3.913-1.29-7.213-2.865-9.012-4.303-14.841-10.022-19.195-18.831-3.626-7.336-3.752-7.958-4.14-20.398l-.4-12.832-34.712-.286-34.712-.287-3.53-2.693c-7.43-5.67-6.857 10.536-6.57-186.152l.259-176.508L1.946 8C3.08 6.482 5.25 4.311 6.769 3.178L9.53 1.116 254.043.86C526.536.575 502.488-.047 508.19 7.43l2.694 3.531.258 176.41c.288 196.581.86 180.385-6.57 186.053l-3.532 2.693-108.4.263c-120.794.294-112.47.757-118.063-6.576-2.203-2.889-2.693-4.578-2.693-9.286 0-6.217 1.664-9.44 6.885-13.34 2.74-2.045 3.539-2.063 101.688-2.325l98.927-.265V32.616h-448v312H79.26l.312-32.805.312-32.806 3.772-7.629c4.456-9.01 10.207-14.594 19.728-19.15l6.5-3.11 33-.372c31.99-.36 32.757-.414 25.065-1.772-16.828-2.97-33.97-12.514-46.2-25.724-29.553-31.92-29.604-80.95-.117-113.213 23.632-25.858 60.828-34.199 93.46-20.959 26.47 10.74 45.83 34.746 50.743 62.922 1.966 11.271 1.958 19.226-.028 29.758-3.821 20.261-15.352 39.084-31.423 51.296-11.101 8.436-20.366 12.688-34 15.605l-8.5 1.818 29.088.07 29.088.071 30.912-23.236c17.001-12.78 33.527-24.593 36.723-26.25l5.81-3.014 14.69-33.05c8.079-18.177 15.514-34.307 16.523-35.843 2.505-3.815 9.888-6.974 14.766-6.32 7.358.987 13.82 8.48 13.878 16.092.012 1.593-7.339 19.448-16.469 40-14.586 32.835-16.419 37.55-15.874 40.842.34 2.046.13 5.646-.467 8-1.153 4.555-48.767 94.574-51.79 97.913-.983 1.087-11.145 6.687-22.583 12.446l-20.795 10.47v76.574c0 85.22.356 80.714-6.812 86.183l-3.531 2.693-60.579.24c-54.569.215-60.908.076-63.899-1.41zm103.051-105.16.269-74.827 2.787-3.654c2.25-2.949 7.265-5.901 26-15.307l23.213-11.653 13.313-24.97c7.322-13.732 13.17-25.11 12.998-25.282-.173-.173-9.05 6.214-19.73 14.192-10.678 7.979-20.494 14.917-21.813 15.418-1.363.518-33.051.912-73.379.912h-70.98l-2.455 2.455-2.454 2.454v54.935c0 65.176-1.239 59.348 12.79 60.194 7.692.464 9.464.919 12.449 3.195 6.659 5.08 6.76 5.732 6.76 43.168v33.6h79.964zm-28.324-190.71c18.646-4.396 34.158-19.908 38.553-38.554 7.666-32.522-17.375-63.989-50.847-63.892-25.005.072-47.345 19.594-50.934 44.508-5.204 36.12 27.736 66.303 63.228 57.937zM384.563 94.99c-1.826-.931-4.526-3.274-6-5.206-3.508-4.6-3.817-13.498-.617-17.784 9.163-12.273 27.5-7.886 29.176 6.98 1.344 11.926-11.997 21.395-22.559 16.01z"/></svg>