<svg width="59.434" height="59.434" xmlns="http://www.w3.org/2000/svg"><path d="M16.255 59.33c-1.5-.326-3.035-1.46-3.7-2.732-.732-1.402-.939-3.045-.553-4.388.44-1.533.435-1.527 11.238-12.321l10.163-10.157-10.26-10.274C12.345 8.65 12.557 8.88 12.116 7.393c-.24-.806-.241-2.335-.004-3.15.26-.897.998-2.093 1.643-2.667C14.494.922 15.7.355 16.724.181c1.08-.183 2.261-.01 3.385.494.793.355 1.175.723 12.844 12.331 6.615 6.58 12.312 12.226 12.66 12.546 1.154 1.06 1.722 2.458 1.722 4.24 0 1.713-.756 3.435-1.897 4.324-.264.206-5.913 5.784-12.554 12.397C21.087 58.26 20.791 58.545 19.978 58.91c-1.31.587-2.392.71-3.723.42z"/></svg>