<svg width="847.448" height="847.448" xmlns="http://www.w3.org/2000/svg"><path d="M559.516 844.928c-13.082-2.84-24.98-9.61-38.565-21.943-5.846-5.307-91.07-82.489-189.388-171.514-98.317-89.026-182.78-166.043-187.695-171.15-11.53-11.976-17.746-25.383-19.909-42.942-3.502-28.43 3.155-52.675 19.05-69.384 4.477-4.706 88.954-81.756 187.727-171.222 98.772-89.467 184.8-167.399 191.172-173.183 21.479-19.495 44.188-26.535 69.164-21.44 57.369 11.699 79.41 81.675 39.084 124.08-4.916 5.169-80.069 73.865-167.006 152.658-86.938 78.793-158.07 143.966-158.07 144.83 0 .862 71.132 66.033 158.07 144.822 86.937 78.79 162.09 147.49 167.006 152.666 4.915 5.177 11.04 13.913 13.61 19.414 20.07 42.963-5.198 94.678-51.003 104.384-13.628 2.888-19.669 2.874-33.247-.075z"/></svg>