<svg width="512" height="512" xmlns="http://www.w3.org/2000/svg"><path d="M47.663 510.501c-13.743-3.025-24.078-9.039-34.281-19.945l-6.219-6.648V368.917l7.75-7.813c8.486-8.555 16.587-13.586 27.75-17.233 6.768-2.211 8.431-2.3 50.215-2.663l43.215-.376-8.382-9.967c-22.214-26.413-38.833-59.477-43.67-86.884-1.906-10.808-1.662-31.656.492-42 8.065-38.715 33.062-71.772 67.13-88.775 7.593-3.79 21.925-8.558 31-10.314 7.887-1.527 29.109-1.831 40.662-.584l7.662.827.708-6.827c3.283-31.652 21.985-62.227 48.418-79.154C294.378 8.019 312.86 1.759 329.57.404l8.634-.701-.27 21.389-.271 21.389-6 .59c-22.092 2.173-41.31 15.462-51.318 35.49-3.242 6.486-6.182 16.448-6.182 20.946 0 2.655.127 2.718 4.25 2.089 11.661-1.78 30.393-1.872 40.255-.198 51.496 8.742 93.198 49.799 102.032 100.454 2.106 12.079 1.897 32.822-.454 44.95-5.848 30.166-23.283 63.33-45.954 87.411l-6.371 6.768h140.242v42.594l-6.587 1.128c-13.77 2.359-25.214 10.994-31.484 23.757-3.276 6.667-3.429 7.472-3.429 18 0 10.314.204 11.452 3.185 17.744 6.244 13.18 19.482 23.113 32.61 24.468l5.705.589v42.72l-227.25-.08c-184.378-.064-228.382-.328-233.25-1.4zm34.5-84.114v-42.594l-14.326.344c-13.686.329-14.511.467-18.491 3.102-2.291 1.518-5.407 4.634-6.924 6.925l-2.759 4.165-.312 26.52c-.348 29.579.063 32.135 6.074 37.831 5.988 5.673 7.986 6.217 22.988 6.26l13.75.04zm351.996 42.344c-.002-.138-1.776-4.75-3.942-10.25l-3.937-10-55.078-.259-55.079-.258.27-21.242.27-21.241 54.908-.5 54.907-.5 2.202-6.527c1.21-3.59 2.94-7.956 3.842-9.7.903-1.746 1.641-3.421 1.641-3.723 0-.303-69.75-.55-155-.55h-155v85h155c85.25 0 154.998-.113 154.996-.25zM231.663 338.253c2.75-.85 7.951-3.284 11.558-5.409s6.879-3.863 7.27-3.863c.392 0 2.513 1.137 4.713 2.526 11.13 7.025 15.554 8.6 24.207 8.612 15.697.022 31.532-7.252 48.793-22.414 26.37-23.164 46.539-57.546 49.956-85.16 1.814-14.658-1.356-32.498-8.152-45.89-7.898-15.562-22.573-29.595-38.498-36.816-11.655-5.285-22.068-7.145-36.847-6.584-15.08.573-22.461 2.505-35.155 9.202l-8.155 4.303-5.279-3.015c-2.903-1.658-8.458-4.126-12.344-5.484-41.328-14.445-82.464 1.538-100.935 39.22-6.88 14.034-8.101 19.59-8.025 36.5.058 12.791.387 15.56 2.786 23.5 6.734 22.287 21.511 46.542 39.037 64.074 17.615 17.622 32.766 26.486 48.562 28.413 6.339.773 9.528.442 16.508-1.715z"/></svg>