<?xml version="1.0" encoding="UTF-8"?>
<svg xmlns="http://www.w3.org/2000/svg" xmlns:xlink="http://www.w3.org/1999/xlink" width="0" height="0">
    <symbol id="calendar" viewBox="0 0 614.4 614.4">
        <path d="M412.34 591.005c-25.164-3.485-49.61-12.125-71.035-25.106l-8.034-4.868H193.367c-154.001 0-146.613.359-149.265-7.25-.754-2.16-1.363-11.07-1.363-19.929v-16.02l-17.7-.04c-18.459-.039-20.174-.457-22.904-5.582C1.088 510.244.74 453.196.74 283.955.74 59.21.75 58.295 3.207 51.727c2.87-7.672 11.882-16.62 18.93-18.796 2.42-.747 12.829-1.633 23.128-1.968l18.726-.61 1.35-5.846C68.736 9.8 81.458-.569 96.11-.569c14.548 0 28.822 12.157 31.267 26.629l.772 4.571h41.744l.73-3.3c2.635-11.9 7.355-18.816 16.081-23.566 19.274-10.49 42.962.73 46.356 21.956l.785 4.91h42.893l.027-3.3c.065-8.178 8.243-19.794 17.373-24.677 6.77-3.621 20.83-3.621 27.6 0 9.13 4.883 17.309 16.499 17.374 24.677l.026 3.3h42.894l.785-4.91C386.212 4.495 409.9-6.725 429.173 3.765c8.689 4.73 13.467 11.704 16.045 23.422l.695 3.157 18.913.527c16.259.453 19.775.905 25.055 3.223 7.138 3.134 12.307 8.139 16.254 15.737l2.804 5.4.34 96.829.341 96.829 11.33 5.965c15.44 8.128 31.791 20.691 44.746 34.38 57.722 60.991 65.48 152.968 18.826 223.197-26.132 39.337-66.003 66.129-113.644 76.365-12.757 2.74-45.716 3.984-58.539 2.209zm53.4-22.972c58.176-11.421 104.645-53.781 121.561-110.813 5.088-17.154 6.666-30.863 5.89-51.173-.898-23.48-4.314-38.202-13.743-59.216-21.558-48.046-67.442-82.815-120.483-91.297-14.932-2.388-42.204-1.751-56.226 1.313-41.287 9.023-77.067 33.445-100.184 68.384-18.87 28.517-26.67 56.977-25.464 92.891.908 27.033 5.127 43.73 16.854 66.71 32.17 63.033 102.074 96.888 171.794 83.201zM417.9 548.87c-56.085-7.203-102.86-48.644-116.3-103.039-11.576-46.847 3.07-98.056 37.657-131.663 26.66-25.905 58.422-38.737 95.881-38.737 36.974 0 68.157 12.43 94.532 37.682 25.079 24.012 38.893 52.463 42.119 86.744 1.074 11.414.237 30.883-1.699 39.506-4.372 19.478-13.897 40.693-24.813 55.269-29.601 39.523-78.806 60.475-127.377 54.238zm6.63-32.945c.392-12.207.54-12.82 3.775-15.6 4.29-3.687 9.365-3.698 13.631-.028 3.183 2.738 3.353 3.434 3.803 15.592l.471 12.727 4.964-.757c36.265-5.528 67.885-27.293 85.554-58.887 4.416-7.896 12.379-29.04 12.4-32.925.01-1.677-1.742-2.049-11.295-2.4-10.002-.368-11.663-.752-14.4-3.325-4.263-4.008-4.263-10.574-.001-14.582 2.797-2.63 4.308-2.949 15.763-3.323l12.67-.414-.782-9.364c-2.196-26.337-13.579-51.143-32.413-70.639-10.326-10.688-19.625-17.501-32.986-24.168-9.845-4.913-29.573-10.8-36.187-10.8h-3.334l-.412 11.905c-.369 10.644-.721 12.234-3.322 15-2.096 2.23-4.109 3.083-7.2 3.056-8.378-.075-10.89-4.651-10.89-19.84V297.03l-3.3.008c-1.816.005-7.78 1.082-13.253 2.394-34.03 8.159-64.091 32.784-78.314 64.153-5.231 11.536-9.445 27.268-10.306 38.48l-.764 9.937 12.874.414c12.389.398 12.984.54 15.768 3.78 3.93 4.571 3.848 10.32-.2 14.124-2.738 2.574-4.399 2.958-14.4 3.325-6.53.24-11.306.928-11.306 1.627 0 3.71 4.393 17.236 8.346 25.7 8.177 17.506 18.678 30.956 33.14 42.448 9.046 7.19 25.935 16.416 36.074 19.709 5.435 1.765 20.213 5.078 24.031 5.388.95.077 1.52-3.91 1.8-12.593zm6.122-83.326c-1.543-.62-7.805-8.802-14.7-19.207-9.438-14.24-12.014-19.02-12.014-22.298 0-8.098 8.806-12.767 15.385-8.159 1.496 1.048 6.13 7.006 10.3 13.24l7.58 11.337 28.068-23.452c15.437-12.899 29.293-23.778 30.79-24.176 4.386-1.167 9.966 1.867 11.886 6.462 1.54 3.685 1.494 4.508-.447 8.092-1.273 2.35-14.406 14.184-31.95 28.788-38.888 32.372-38.336 32.011-44.898 29.373zm-126.527 103.42a8759.664 8759.664 0 0 1-8.787-10.79l-6-7.378-112.5-.01-112.5-.01v21.6h242.574Zm-28.587-39.134c0-.3-2.166-5.47-4.814-11.487-28.538-64.85-16.797-140.084 30.047-192.522 31.761-35.555 75.023-56.594 123.599-60.107 14.135-1.023 36.735 1.042 52.118 4.76l11.45 2.769V137.43H22.34v360h126.6c69.63 0 126.6-.246 126.6-.546zM84.804 410.158c-3.045-1.075-7.737-4.285-10.928-7.476-19.882-19.882-5.8-53.418 22.346-53.21 18.018.133 31.007 13.332 31.057 31.56.06 21.917-21.336 36.59-42.475 29.126zm19.754-23.518c2.814-4.017 2.227-9.636-1.382-13.245-9.231-9.231-22.914 3.695-14.813 13.994 3.961 5.036 12.417 4.645 16.195-.749zm86.596 23.813c-12.327-4.72-20.518-16.73-20.385-29.888.09-8.913 2.269-14.44 8.354-21.194 15.784-17.521 45.107-11.125 52.823 11.523 2.285 6.704 1.642 17.395-1.41 23.442-2.895 5.74-8.75 11.67-14.397 14.58-6.164 3.178-18.687 3.949-24.985 1.537zm18.367-22.802c4.869-5.183 2.365-15.284-4.197-16.931-12.296-3.086-19.302 13.23-8.093 18.849 4.717 2.364 8.876 1.715 12.29-1.918zM93.139 327.277c-12.314-1.664-22.268-9.278-26.332-20.142-3.1-8.284-3.12-14.27-.075-22.408 8.229-21.994 37.867-27.126 53.201-9.212 4.43 5.175 8.006 14.251 8.006 20.316 0 9.917-7.005 21.934-16.016 27.474-4.114 2.53-13.996 4.619-18.784 3.972zm9.508-23.753c7.424-6.246 3.203-17.773-6.508-17.773-10.74 0-14.207 14.035-4.8 19.43 3.829 2.196 7.341 1.681 11.308-1.657zm94.105 23.342c-15.195-2.655-25.87-15.071-25.958-30.192-.106-18.288 13.122-31.969 30.945-32.005 22.843-.046 38.42 23.497 28.971 43.787-6.437 13.824-19.543 20.93-33.958 18.41zm10.43-22.057c7.494-3.875 6.294-15.893-1.856-18.582-10.748-3.548-18.304 8.872-10.279 16.896 3.935 3.936 6.97 4.357 12.135 1.686zM86.998 241.374C75.502 237.266 67.89 229 65.308 217.816c-3.795-16.442 7.128-33.464 23.968-37.351 21.652-4.998 42.509 15.506 37.671 37.034-4.102 18.261-23.395 29.791-39.949 23.875zm16.396-22.888c6.471-6.472 1.906-17.455-7.255-17.455-9.16 0-13.725 10.983-7.254 17.455 2.033 2.033 4.28 2.945 7.254 2.945 2.975 0 5.221-.912 7.255-2.945zm87.404 22.132c-25.528-10.126-27.132-45.204-2.638-57.7 24.693-12.597 52.556 12.222 43.514 38.76-5.572 16.354-24.861 25.292-40.876 18.94zm18.194-21.928c2.444-2.102 3.187-3.841 3.187-7.459 0-9.297-10.847-13.665-17.476-7.036-9.36 9.36 4.232 23.146 14.29 14.495zm88.366 22.059c-21.554-7.444-27.6-35.274-11.302-52.026 4.966-5.104 14.828-9.292 21.883-9.292s16.918 4.188 21.884 9.292c16.607 17.07 9.787 45.843-12.43 52.44-8.058 2.393-12.15 2.309-20.035-.414zm17.812-22.35c6.223-6.624 1.75-17.368-7.23-17.368-3.135 0-5.193.863-7.231 3.033-6.223 6.623-1.75 17.367 7.23 17.367 3.135 0 5.193-.863 7.231-3.033zm172.77-130.86V59.246l-3.508-3.507-3.508-3.508h-34.766l-.41 12.506c-.369 11.286-.693 12.809-3.318 15.6l-2.909 3.094h-25.645c-25.629 0-25.648-.002-28.591-2.945-2.755-2.755-2.946-3.765-2.946-15.6V52.23h-43.2v12.438c0 10.767-.334 12.863-2.487 15.6l-2.487 3.162h-52.451l-2.488-3.162c-2.152-2.737-2.487-4.833-2.487-15.6V52.231h-43.2v12.655c0 11.835-.19 12.845-2.945 15.6-2.944 2.943-2.963 2.945-28.59 2.945h-25.646l-2.91-3.094c-2.625-2.791-2.949-4.314-3.318-15.6l-.41-12.506h-41.78V63.71c0 11.425-1.016 15.357-4.697 18.183-2.02 1.551-49.633 2.257-53.45.793-3.84-1.474-5.454-7.092-5.454-18.995V52.23H47.46c-16.938 0-20.525.714-23.582 4.696-1.052 1.37-1.473 9.894-1.5 30.404l-.039 28.5h465.6Zm-381.6-42.563c0-17.569-.08-18.133-2.946-21-4.008-4.007-10.502-4.007-14.51 0-2.865 2.867-2.945 3.431-2.945 21v18.055h20.4zm106.61.15c-.39-17.02-.555-18.06-3.32-21-4.084-4.345-11.081-4.308-15.148.08-2.849 3.074-2.943 3.743-2.943 21v17.825h21.82zm105.79 1.783c0-21.472-1.813-25.802-10.8-25.802-8.988 0-10.8 4.33-10.8 25.802v16.122h21.6zm105.6-1.703c0-17.257-.094-17.926-2.943-21-4.067-4.388-11.064-4.425-15.148-.08-2.766 2.94-2.93 3.98-3.32 21l-.41 17.905h21.82z" />
    </symbol>
    <symbol id="class" viewBox="0 0 512 512">
        <path d="M120.564 510.947c-1.827-.907-4.527-3.23-6-5.16l-2.68-3.512-.287-35.33c-.217-26.872-.577-35.33-1.5-35.33-.667 0-3.913-1.29-7.213-2.865-9.012-4.303-14.841-10.022-19.195-18.831-3.626-7.336-3.752-7.958-4.14-20.398l-.4-12.832-34.712-.286-34.712-.287-3.53-2.693c-7.43-5.67-6.857 10.536-6.57-186.152l.259-176.508L1.946 8C3.08 6.482 5.25 4.311 6.769 3.178L9.53 1.116 254.043.86C526.536.575 502.488-.047 508.19 7.43l2.694 3.531.258 176.41c.288 196.581.86 180.385-6.57 186.053l-3.532 2.693-108.4.263c-120.794.294-112.47.757-118.063-6.576-2.203-2.889-2.693-4.578-2.693-9.286 0-6.217 1.664-9.44 6.885-13.34 2.74-2.045 3.539-2.063 101.688-2.325l98.927-.265V32.616h-448v312H79.26l.312-32.805.312-32.806 3.772-7.629c4.456-9.01 10.207-14.594 19.728-19.15l6.5-3.11 33-.372c31.99-.36 32.757-.414 25.065-1.772-16.828-2.97-33.97-12.514-46.2-25.724-29.553-31.92-29.604-80.95-.117-113.213 23.632-25.858 60.828-34.199 93.46-20.959 26.47 10.74 45.83 34.746 50.743 62.922 1.966 11.271 1.958 19.226-.028 29.758-3.821 20.261-15.352 39.084-31.423 51.296-11.101 8.436-20.366 12.688-34 15.605l-8.5 1.818 29.088.07 29.088.071 30.912-23.236c17.001-12.78 33.527-24.593 36.723-26.25l5.81-3.014 14.69-33.05c8.079-18.177 15.514-34.307 16.523-35.843 2.505-3.815 9.888-6.974 14.766-6.32 7.358.987 13.82 8.48 13.878 16.092.012 1.593-7.339 19.448-16.469 40-14.586 32.835-16.419 37.55-15.874 40.842.34 2.046.13 5.646-.467 8-1.153 4.555-48.767 94.574-51.79 97.913-.983 1.087-11.145 6.687-22.583 12.446l-20.795 10.47v76.574c0 85.22.356 80.714-6.812 86.183l-3.531 2.693-60.579.24c-54.569.215-60.908.076-63.899-1.41zm103.051-105.16.269-74.827 2.787-3.654c2.25-2.949 7.265-5.901 26-15.307l23.213-11.653 13.313-24.97c7.322-13.732 13.17-25.11 12.998-25.282-.173-.173-9.05 6.214-19.73 14.192-10.678 7.979-20.494 14.917-21.813 15.418-1.363.518-33.051.912-73.379.912h-70.98l-2.455 2.455-2.454 2.454v54.935c0 65.176-1.239 59.348 12.79 60.194 7.692.464 9.464.919 12.449 3.195 6.659 5.08 6.76 5.732 6.76 43.168v33.6h79.964zm-28.324-190.71c18.646-4.396 34.158-19.908 38.553-38.554 7.666-32.522-17.375-63.989-50.847-63.892-25.005.072-47.345 19.594-50.934 44.508-5.204 36.12 27.736 66.303 63.228 57.937zM384.563 94.99c-1.826-.931-4.526-3.274-6-5.206-3.508-4.6-3.817-13.498-.617-17.784 9.163-12.273 27.5-7.886 29.176 6.98 1.344 11.926-11.997 21.395-22.559 16.01z" />
    </symbol>
    <symbol id="close" viewBox="0 0 655.36 655.36">
        <path d="M299.222 653.105c-60.655-5.784-118.338-28.239-168.207-65.48-15.795-11.796-50.673-46.674-62.468-62.469-89.089-119.294-89.089-277.28 0-396.574 11.795-15.796 46.673-50.673 62.468-62.469 119.294-89.088 277.28-89.088 396.575 0 15.795 11.796 50.672 46.673 62.468 62.469 89.088 119.294 89.088 277.28 0 396.574-11.796 15.795-46.673 50.673-62.468 62.469-66.533 49.685-148.256 73.118-228.368 65.48zm-65.917-204.637c3.41-.978 15.28-12.092 50.231-47.033l45.766-45.753 45.12 45.054c24.816 24.78 46.742 45.656 48.723 46.393 16.504 6.136 32.553-9.914 26.418-26.417-.737-1.982-21.614-23.907-46.394-48.723l-45.053-45.12 45.619-45.76c25.09-25.168 46.255-47.018 47.033-48.556 2.427-4.798 1.707-13.672-1.496-18.424-6.006-8.912-15.501-12.275-24.847-8.8-1.981.736-24.195 21.901-49.363 47.033l-45.76 45.693-45.12-45.053c-24.816-24.78-46.741-45.657-48.723-46.393-16.503-6.136-32.553 9.913-26.417 26.417.737 1.981 21.61 23.903 46.385 48.714l45.045 45.112-46.238 46.408c-50.286 50.472-49.631 49.618-46.611 60.835 2.108 7.83 11.1 15.077 19.288 15.544 1.06.06 3.938-.466 6.394-1.17z" />
    </symbol>
    <symbol id="first" viewBox="0 0 210 297">
        <path d="M98.117 210.456c-1.22-.319-2.973-1.066-3.895-1.661-.922-.595-18.535-17.966-39.14-38.602-40.885-40.946-38.739-38.589-39.627-43.532-.323-1.792-.323-2.78 0-4.572.889-4.943-1.27-2.574 39.736-43.63C80.157 53.46 93.359 40.477 94.538 39.762c1.03-.624 2.876-1.314 4.402-1.645 2.25-.489 2.979-.512 5.06-.16 6.125 1.038 10.63 5.25 11.95 11.174.473 2.118.516 3.039.237 4.97-.755 5.211 1.397 2.79-33.933 38.185l-32.03 32.088 32.03 32.09c35.33 35.394 33.178 32.973 33.933 38.184 1.043 7.203-3.78 14.209-10.946 15.897-2.78.656-4.344.636-7.124-.09zm72.068-14.473c-1.07-.26-2.366-.729-2.878-1.043-.513-.314-1.44-.889-2.06-1.277-1.135-.713-59.81-65.652-61.32-67.868-2.135-3.132-2.032-6.482.294-9.578.715-.95 14.67-15.127 31.011-31.503 28.273-28.332 29.831-29.833 32.188-30.998 5.595-2.765 11.934-1.764 16.565 2.617 4.634 4.382 5.762 11.21 2.846 17.227-.978 2.017-3.257 4.404-25.263 26.461l-24.19 24.245 24.33 24.523c22.374 22.554 24.404 24.693 25.266 26.633 1.329 2.989 1.756 5.753 1.308 8.456-1.45 8.755-9.554 14.175-18.097 12.105z" />
    </symbol>
    <symbol id="grid" viewBox="0 0 682.667 682.667">
        <path d="M39.15 682.058c-14.201-3.397-26.899-13.962-33.536-27.903l-4.126-8.667V322.765l4.374-8.885c7.337-14.903 21.006-25.12 37.14-27.763 11.276-1.846 219.12-1.704 229.188.157 21.182 3.916 36.651 19.363 40.516 40.459 1.872 10.222 2.015 303.204.153 314.574-2.642 16.134-12.86 29.803-27.762 37.14l-8.884 4.375-116.029.217c-64.84.121-118.237-.311-121.035-.98Zm368.244-.375c-18.506-5.044-32.784-21.083-35.943-40.376-1.806-11.024-1.675-133.929.153-143.907 3.927-21.438 19.61-36.82 41.366-40.572 5.874-1.013 43.078-1.346 119.852-1.071l111.333.398 7.662 3.094c10.696 4.32 21.232 14.331 26.64 25.316l4.365 8.867v152.056l-4.127 8.667c-5.243 11.015-13.525 19.297-24.54 24.54l-8.667 4.127-116 .26c-89.127.202-117.412-.123-122.094-1.399zm2.76-283.993c-20.244-4.485-34.743-19.594-38.547-40.167-1.89-10.23-2.02-303.138-.139-314.628 2.675-16.331 13.639-30.604 29.063-37.833l7.624-3.574h237.333l8.667 4.126c11.015 5.244 19.297 13.526 24.54 24.54l4.127 8.668.414 156.666c.305 115.489.007 158.594-1.138 164-3.326 15.713-15.485 30.264-30.28 36.24l-7.663 3.093-113.333.247c-84.99.185-115.168-.16-120.667-1.378ZM41.798 227.438c-14.792-2.488-28.874-13.334-35.935-27.675l-4.374-8.885V38.822l4.126-8.667c2.27-4.767 6.77-11.31 10-14.54 3.23-3.231 9.774-7.731 14.54-10l8.667-4.127h237.334l7.624 3.574c15.424 7.229 26.388 21.502 29.062 37.833 1.822 11.121 1.703 134-.139 143.961-3.878 20.978-19.535 36.635-40.512 40.513-9.254 1.71-220.258 1.774-230.393.07z" />
    </symbol>
    <symbol id="last" viewBox="0 0 655.36 655.36">
        <path d="M315.958 654.03c-26.99-5.861-46.084-33.926-41.579-61.112 3.141-18.954-4.531-10.375 128.189-143.34l121.056-121.28-121.056-121.28C269.848 74.054 277.52 82.633 274.379 63.678c-5.883-35.502 26.51-67.7 62.272-61.899 18.969 3.077 9.648-5.385 165.363 150.135 94.478 94.36 143.549 144.258 146.249 148.713 2.36 3.894 4.968 10.872 6.22 16.64 1.845 8.503 1.932 11.256.6 19.122-3.238 19.13 5.269 9.76-150.23 165.454-94.597 94.715-144.253 143.546-148.73 146.26-6.637 4.022-20.815 7.906-28.294 7.751-2.112-.044-7.454-.864-11.87-1.823zM43.163 598.996c-21.798-6.122-37.392-24.147-41.234-47.662-3.246-19.864 3.29-37.466 20.81-56.05 37.739-40.033 155.324-164.073 162.736-171.67l8.942-9.166-82.414-86.857C5.683 115.538 11.253 121.64 7.036 112.618c-20.319-43.468 15.24-92.832 60.052-83.366 17.756 3.751 15.242 1.389 128.64 120.9C323.069 284.354 317.756 278.566 322.2 287.978c5.325 11.276 7.182 23.94 5.208 35.52-2.356 13.829-7.257 22.955-19.76 36.8-24.35 26.966-214.433 226.117-219.458 229.93-11.753 8.917-31.089 12.681-45.027 8.767z" />
    </symbol>
    <symbol id="line" viewBox="0 0 512 512">
        <path d="M76.299 512.898c-33.87-6.129-61.87-32.322-71.016-66.434-1.887-7.037-2.265-10.908-2.2-22.5.097-17.043 2.038-25.353 9.342-40 5.78-11.586 12.907-20.726 22.226-28.5l6.593-5.5-9.889-.732c-7.523-.557-11.06-1.327-14.788-3.216-16.156-8.186-18.728-30.414-4.872-42.098 4.738-3.995 9.176-5.563 17.538-6.195 7.32-.554 7.423-.601 9.906-4.536 11.909-18.864 11.984-47.811.179-68.472l-3-5.25h-7.23c-5.775 0-8.277-.522-12.429-2.59-16.357-8.152-18.968-29.89-5.023-41.826 5.436-4.652 12.067-6.585 22.6-6.585h8.408l-4.84-3.838C3.802 137.66-6.92 91.406 11.921 52.965c11.248-22.95 32.87-40.707 58.044-47.667 7.494-2.072 10.484-2.236 47.358-2.595l39.358-.384 2.392 2.247c3.155 2.965 3.19 7.8.077 10.724-2.287 2.149-2.736 2.175-38.042 2.175-28.769 0-37.228.31-43.429 1.59-15.375 3.176-27.11 9.636-38.368 21.122-15.448 15.76-22.817 35.004-21.541 56.25.747 12.436 2.647 19.444 8.416 31.037 8.454 16.99 25.279 31.463 44 37.848l7.779 2.652 206.907.262c229.843.29 210.173.88 213.205-6.376 1.754-4.197.532-10.04-2.713-12.977-2.057-1.862-7.16-1.92-207.754-2.408l-205.645-.5-6.5-2.315C38.2 130.384 26.802 84.03 53.81 55.59c5.65-5.951 14.67-11.698 22.582-14.39l6.573-2.234 205.132-.27 205.132-.268 2.496-2.495c3.213-3.214 4.09-7.691 2.333-11.899-2.982-7.136 10.528-6.568-156.316-6.568-148.944 0-150.295-.018-152.278-2-2.652-2.653-2.652-8.348 0-11 1.983-1.983 3.334-2 152.319-2 165.589 0 156.898-.328 163.546 6.171 4.626 4.523 7.27 10.219 7.883 16.982 1.497 16.507-8.856 27.847-25.424 27.847h-7.283l-3.03 5.25c-11.016 19.088-11.686 43.718-1.734 63.75l4.223 8.5 8 .598c11.653.872 19.353 5.601 23.942 14.705 6.115 12.13-.075 28.857-12.886 34.823-4.22 1.965-6.709 2.36-15.056 2.395l-10 .042 3 2.181c6.38 4.64 16.658 15.345 21.61 22.508 24.098 34.859 20.029 82.63-9.61 112.802-4.4 4.479-9.575 9.332-11.5 10.784l-3.5 2.64 9.884.01c12.433.014 17.014 1.37 22.233 6.582 10.237 10.222 9.67 28.824-1.169 38.341-4.89 4.293-7.475 5.201-16.948 5.953l-8 .635-4.223 8.5c-9.952 20.032-9.282 44.661 1.734 63.75l3.03 5.25 7.23.01c16.75.023 26.985 11.212 25.476 27.853-.944 10.409-7.401 19.067-16.16 21.668-7.202 2.139-408.91 2.046-420.752-.097zm418.049-15.064c3.093-2.167 5.237-7.519 4.496-11.224-.328-1.638-1.799-4.131-3.269-5.54l-2.673-2.56-61.614-.273c-58.978-.26-61.705-.354-63.719-2.177-2.746-2.486-2.8-7.9-.105-10.596 1.943-1.942 3.334-2 48.5-2 25.928 0 46.5-.387 46.5-.875 0-.482-1.064-3.294-2.364-6.25-9.19-20.886-8.583-43.318 1.87-69.124.667-1.648-1.408-1.75-35.399-1.75h-36.107v16c0 14.666-.166 16.166-2 18-1.118 1.118-3.333 2-5.024 2-2.515 0-5.496-2.338-17.717-13.893l-14.692-13.893-5.186 4.643c-2.852 2.553-9.72 8.805-15.262 13.893-10.924 10.026-14.08 11.289-18.119 7.25-1.833-1.834-2-3.334-2-18.017V385.43l-113.75.267-113.75.267-6.5 3.086c-19.643 9.328-28.09 32.349-18.982 51.728 4.924 10.474 16.062 19.125 27.782 21.577 3.712.777 41.965 1.109 127.75 1.109 121.117 0 122.472.021 124.45 2 2.528 2.527 2.567 7.078.089 10.139l-1.912 2.36H83.964l-7-2.208c-31.934-10.075-47.105-45.731-32.248-75.791 5.764-11.664 17.14-21.65 30.032-26.363l7.217-2.637 114.25-.271 114.25-.27v-20.96h-114.34c-109.682 0-114.648.08-121.886 1.93-25.9 6.625-47.65 28.072-54.325 53.57-5.164 19.723-1.68 42.124 9.243 59.449 7.62 12.086 22.94 24.833 35.974 29.934 13.197 5.165 3.592 4.948 222.861 5.036 187.089.075 204.22-.054 206.356-1.55zm-143.402-122.37c1.823 0 5.508 2.789 13.216 10 5.877 5.5 11.05 10 11.495 10 .444 0 .807-29.025.807-64.5v-64.5h-51v130.172l11.477-10.586c8.272-7.63 12.183-10.586 14.005-10.586zm143.402-6.63c5.41-3.79 6.082-12.131 1.358-16.855l-2.514-2.515H390.465v21h50.777c45.326 0 51.027-.175 53.106-1.63zm-184.384-45.37v-10.5l-142.097-.253-142.097-.253-3.403 2.287c-6.78 4.556-6 15.032 1.356 18.234 2.748 1.196 24.799 1.379 144.742 1.198l141.5-.213zm123.3 9.966c30.168-3.782 53.998-24.094 63.343-53.99 3.366-10.768 3.367-30.16.004-40.976-4.223-13.579-9.62-22.55-19.606-32.585-7.651-7.689-10.5-9.8-18.54-13.744-18.327-8.987 4.808-8.128-227.079-8.433l-205.577-.27-3.423 2.3c-7.123 4.787-5.89 15.707 2.08 18.426 2.663.909 51.868 1.207 206.067 1.25 183.322.051 203.085.21 208 1.669 21.195 6.292 35.636 22.71 38.99 44.33 3.901 25.14-12.765 51.37-37.559 59.112-2.393.747-13.038 1.49-26.5 1.847l-22.5.599-.29 9.424c-.159 5.184-.06 10.022.22 10.75.637 1.662 29.842 1.862 42.37.291zm-122.8-51.466v-15.5H229.6c-80.295 0-80.883-.014-83.5-2.072-3.332-2.621-3.537-7.338-.46-10.613l2.174-2.315h131.715c127.202 0 131.794.065 134.026 1.872 3.21 2.6 3.21 8.657 0 11.257-1.927 1.56-4.04 1.871-12.7 1.871h-10.39V297.602l22.25-.319 22.25-.319 5.979-2.93c15.563-7.63 24.63-25 21.609-41.4-3.233-17.543-16.303-29.972-33.908-32.243-3.674-.473-89.42-.876-190.546-.894-174.667-.03-183.839.055-183.305 1.717.31.963 1.95 5.532 3.645 10.153 7.34 20.005 6.18 41.67-3.445 64.347-.705 1.662 5.742 1.75 127.365 1.75h128.106Zm151.506-152.25c-10.453-25.806-11.06-48.238-1.87-69.124 1.3-2.956 2.364-5.775 2.364-6.265 0-.519-79.043-.78-189.302-.626l-189.302.266-7.62 3.765C43.802 73.764 47.39 119.1 81.966 130.062c3.168 1.005 43.136 1.283 192.356 1.336 179.007.063 188.322-.02 187.649-1.684z" />
    </symbol>
    <symbol id="list" viewBox="0 0 512 521">
        <path d="M14.626 511.3c-4.781-1.522-11.283-8.288-12.78-13.3-1.604-5.37-1.758-113.94-.17-119.661 1.365-4.916 6.39-10.568 11.432-12.858 3.841-1.745 13.987-1.82 243.508-1.82 229.521 0 239.667.075 243.509 1.82 5.041 2.29 10.066 7.942 11.431 12.858 1.589 5.72 1.435 114.291-.17 119.661-1.587 5.313-8.073 11.799-13.386 13.386-5.647 1.688-478.069 1.604-483.374-.085zm1.41-181.095c-6.09-1.907-10.188-5.415-12.972-11.107L.569 314l.273-58.52.274-58.522 3.01-4.865c2.136-3.456 4.447-5.607 7.972-7.421l4.965-2.555H496.17l4.964 2.555c3.526 1.814 5.836 3.965 7.973 7.42l3.01 4.866.28 58.08c.315 64.816.452 63.343-6.547 70.14-7.127 6.922 11.51 6.446-249.665 6.372-188.607-.053-236.89-.323-240.149-1.344Zm-2.928-182.454c-5.042-2.29-10.067-7.942-11.432-12.858-1.588-5.72-1.434-114.291.17-119.66 1.587-5.314 8.073-11.8 13.386-13.387C21.238.052 491.995.052 498 1.846c5.313 1.587 11.799 8.073 13.386 13.386 1.605 5.37 1.759 113.94.17 119.661-1.365 4.916-6.39 10.568-11.431 12.858-3.842 1.745-13.988 1.821-243.509 1.821s-239.667-.076-243.508-1.82z" />
    </symbol>
    <symbol id="minus" viewBox="0 0 682.66 682.667">
        <path d="M310.822 682.364c-81.69-8.443-151.716-41.622-209.407-99.218C72.05 553.828 53.63 528.23 36.14 492.439c-16.452-33.669-25.904-63.61-31.567-100-4.161-26.732-4.161-73.268 0-100 11.56-74.282 43.715-137.612 96.842-190.74 29.387-29.386 54.999-47.81 90.74-65.275 33.669-16.452 63.609-25.904 100-31.567 26.762-4.166 73.285-4.162 100 .008 36.951 5.767 66.39 15.052 100 31.54 35.927 17.623 61.393 35.948 90.74 65.294 29.345 29.346 47.67 54.812 65.294 90.74 16.326 33.28 25.875 63.548 31.548 100 4.16 26.731 4.16 73.268 0 100-11.532 74.093-43.85 137.746-96.843 190.739-29.346 29.346-54.812 47.671-90.74 65.295-33.205 16.29-64.223 26.072-99.588 31.41-20.547 3.102-63.205 4.396-81.744 2.48zm194.123-315.028c3.232-1.706 7.677-5.658 9.877-8.781 3.62-5.14 4-6.67 4-16.116s-.38-10.977-4-16.116c-2.2-3.124-6.645-7.076-9.877-8.782l-5.876-3.102H185.24l-5.876 3.102c-3.232 1.706-7.677 5.658-9.877 8.782-3.62 5.14-4 6.67-4 16.116s.38 10.976 4 16.116c2.2 3.123 6.645 7.075 9.877 8.781l5.876 3.103h313.828z" />
    </symbol>
    <symbol id="more" viewBox="0 0 438.85 438.857">
        <path d="M199.286 438.193c-40.618-3.873-79.245-18.91-112.64-43.848-10.576-7.899-33.932-31.254-41.83-41.831-59.658-79.885-59.658-185.68 0-265.564 7.898-10.577 31.254-33.932 41.83-41.831 79.885-59.658 185.68-59.658 265.564 0 10.577 7.899 33.933 31.254 41.832 41.831 59.657 79.885 59.657 185.679 0 265.564-7.9 10.577-31.255 33.932-41.832 41.831-44.553 33.272-99.278 48.963-152.924 43.848zM120 254.683c17.163-5.147 28.215-22.405 25.707-40.142-2.207-15.62-15.181-28.594-30.802-30.802-23.898-3.378-44.562 17.285-41.184 41.184 3.056 21.622 25.433 36.012 46.279 29.76zm109.714 0c17.163-5.147 28.215-22.405 25.708-40.142-2.208-15.62-15.182-28.594-30.803-30.802-23.898-3.378-44.562 17.285-41.184 41.184 3.057 21.622 25.433 36.012 46.28 29.76zm109.715 0c17.162-5.147 28.214-22.405 25.707-40.142-2.208-15.62-15.182-28.594-30.802-30.802-23.899-3.378-44.562 17.285-41.184 41.184 3.056 21.622 25.433 36.012 46.279 29.76z" />
    </symbol>
    <symbol id="next" viewBox="0 0 59.434 59.434">
        <path d="M16.255 59.33c-1.5-.326-3.035-1.46-3.7-2.732-.732-1.402-.939-3.045-.553-4.388.44-1.533.435-1.527 11.238-12.321l10.163-10.157-10.26-10.274C12.345 8.65 12.557 8.88 12.116 7.393c-.24-.806-.241-2.335-.004-3.15.26-.897.998-2.093 1.643-2.667C14.494.922 15.7.355 16.724.181c1.08-.183 2.261-.01 3.385.494.793.355 1.175.723 12.844 12.331 6.615 6.58 12.312 12.226 12.66 12.546 1.154 1.06 1.722 2.458 1.722 4.24 0 1.713-.756 3.435-1.897 4.324-.264.206-5.913 5.784-12.554 12.397C21.087 58.26 20.791 58.545 19.978 58.91c-1.31.587-2.392.71-3.723.42z" />
    </symbol>
    <symbol id="plus" viewBox="0 0 682.66 682.667">
        <path d="M308.357 682.114c-81.69-8.442-151.715-41.621-209.406-99.218-29.366-29.318-47.787-54.915-65.276-90.707-16.452-33.668-25.903-63.609-31.567-100-4.16-26.731-4.16-73.268 0-100 11.561-74.281 43.716-137.612 96.843-190.74 29.386-29.386 54.998-47.81 90.74-65.275 33.668-16.452 63.608-25.903 100-31.567 26.761-4.165 73.285-4.161 100 .008 36.95 5.768 66.389 15.052 100 31.54 35.927 17.623 61.393 35.948 90.739 65.295 29.346 29.346 47.67 54.812 65.295 90.739 16.326 33.281 25.874 63.549 31.548 100 4.16 26.732 4.16 73.268 0 100-11.532 74.094-43.85 137.747-96.843 190.74-29.346 29.346-54.812 47.67-90.74 65.294-33.206 16.29-64.224 26.073-99.588 31.411-20.548 3.102-63.205 4.396-81.745 2.48zm44.79-165.694c3.232-1.706 7.677-5.657 9.877-8.78l4-5.677.666-65.554.667-65.553 65.554-.667 65.553-.666 5.677-4c15.964-11.247 15.964-35.42 0-46.667l-5.677-4-65.553-.667-65.554-.666-.667-65.554-.666-65.553-4-5.678c-11.247-15.964-35.42-15.964-46.667 0l-4 5.678-.667 65.553-.666 65.554-65.554.666-65.553.667-5.678 4c-15.964 11.247-15.964 35.42 0 46.667l5.678 4 65.553.666 65.554.667.666 65.553.667 65.554 4 5.677c5.426 7.702 13.635 11.883 23.333 11.883 5.363 0 9.3-.908 13.457-3.103z" />
    </symbol>
    <symbol id="prev" viewBox="0 0 847.44 847.448">
        <path d="M559.516 844.928c-13.082-2.84-24.98-9.61-38.565-21.943-5.846-5.307-91.07-82.489-189.388-171.514-98.317-89.026-182.78-166.043-187.695-171.15-11.53-11.976-17.746-25.383-19.909-42.942-3.502-28.43 3.155-52.675 19.05-69.384 4.477-4.706 88.954-81.756 187.727-171.222 98.772-89.467 184.8-167.399 191.172-173.183C543.387 4.095 566.096-2.945 591.072 2.15c57.369 11.699 79.41 81.675 39.084 124.08-4.916 5.169-80.069 73.865-167.006 152.658-86.938 78.793-158.07 143.966-158.07 144.83 0 .862 71.132 66.033 158.07 144.822 86.937 78.79 162.09 147.49 167.006 152.666 4.915 5.177 11.04 13.913 13.61 19.414 20.07 42.963-5.198 94.678-51.003 104.384-13.628 2.888-19.669 2.874-33.247-.075z" />
    </symbol>
    <symbol id="project" viewBox="0 0 506.72 505.732">
        <path d="M2.609 250.346V6.387h380.04v93.031h87.094v262.268h-12.866V112.284H217.37v45.526h-12.866V99.418h165.279V63.789H15.475v418.64H252.01V494.304H2.609Zm289.756-215.01.272-16.083H15.475V51.92l138.309-.251 138.31-.251zm38.598 0 .272-16.083h-26.771v15.67c0 8.619.31 15.98.688 16.358.379.379 6.28.564 13.114.413l12.425-.276zm38.82.247v-16.33h-26.72v15.67c0 8.619.296 15.967.659 16.33.363.363 6.375.66 13.36.66h12.702zm-96 452.783v-5.938h96v-44.536l-63.092-.006c-36.196-.003-65.6-.416-68.976-.969-16.034-2.626-29.258-15.633-32.216-31.688-.645-3.502-.913-39.37-.751-100.454l.252-95.007H216.877l.494 97.98.495 97.98 2.189 4.091c10.705 20.014 37.969 19.39 46.847-1.072.956-2.205 2.05-6.793 2.428-10.195l.69-6.186h239.6l-.619 7.332c-1.144 13.537-6.772 23.798-16.826 30.681-10.347 7.083-8.759 6.896-61.773 7.292l-47.752.357v56.277H273.784Zm202.922-64.323c6.386-1.774 12.54-6.495 15.74-12.076 1.656-2.888 3.015-5.807 3.02-6.487.007-.982-22.004-1.237-106.785-1.237H281.886l-1.773 5.634c-.974 3.1-3.213 7.776-4.973 10.392l-3.202 4.757 100.634-.006c62.803-.003 101.95-.37 104.133-.977zM40.217 442.346v-6.433h133.608v12.866H40.217Zm0-29.69v-6.434h133.608v12.866H40.217Zm0-28.702v-6.433h133.608v12.866H40.217Zm278.756-43.036c-22.996-4.16-44.396-17.606-56.729-35.644-4.59-6.713-9.728-17.429-12.34-25.732-2.05-6.518-2.334-9.354-2.322-23.258.015-18.728 1.128-23.836 8.414-38.598 13.975-28.315 40.725-45.804 72.963-47.701l10.144-.597v80.463h80.42l-.687 9.155c-1.51 20.096-6.918 34.975-17.895 49.237-15.963 20.739-39.005 32.455-65.301 33.203-6.532.186-14.032-.051-16.667-.528zm29.075-13.384c3.902-.82 7.658-1.823 8.348-2.227.923-.541-1.588-6.858-9.535-23.992l-13.313-28.701-2.523-5.443-3.631 4.044a12817.012 12817.012 0 0 1-21.32 23.553c-20.256 22.34-19.634 19.543-5.886 26.473 4.452 2.244 11.355 4.881 15.34 5.86 9.036 2.22 23.135 2.407 32.52.433zm28.057-12.742c10.146-7.24 18.06-16.95 23.383-28.689 3.22-7.1 5.925-16.827 5.925-21.302v-3.074h-31.176c-17.146 0-31.175.296-31.175.658 0 1.066 26.013 56.744 26.51 56.744.25 0 3.19-1.951 6.533-4.337zm-73.28-35.37 23.412-25.852v-71.108l-3.71.61c-33.583 5.517-58.47 31.072-62.595 64.277-1.803 14.504 1.566 31.851 8.537 43.964 3.13 5.44 9.424 13.96 10.311 13.96.347 0 11.167-11.633 24.044-25.851zM40.216 325.067v-5.938h15.835V331.006H40.217zm31.67 0v-5.938h15.835V331.006H71.887zm31.67 0v-5.938h15.835V331.006h-15.835zm32.66 0v-5.938h15.835V331.006h-15.835zm31.67-1.484v-7.423h12.866v14.846h-12.866zm.66-23.918c-.363-.362-.66-3.925-.66-7.917v-7.258h12.866v15.835h-5.773c-3.176 0-6.07-.297-6.433-.66zm-.66-39.917v-7.918h12.866v15.835h-12.866zM35.763 260.84c-13.896-6.434-16.565-24.41-5.117-34.462 4.464-3.92 10.39-5.598 16.939-4.798l5.003.61 17.656-17.098 17.657-17.098-1.112-4.829c-4.28-18.59 18.22-32.414 32.97-20.256 4.962 4.091 6.912 8.118 7.526 15.543l.52 6.293 16.22 7.344c15.03 6.804 16.349 7.227 17.968 5.762 3.37-3.05 10.78-4.567 16.5-3.38 2.857.594 5.451 1.495 5.765 2.002.314.508 1.005.923 1.537.923s10.936-9.64 23.12-21.422c20.462-19.786 22.084-21.604 21.243-23.817-1.627-4.281-.984-9.683 1.811-15.197 7.156-14.115 26.11-15.227 35.338-2.072 2.679 3.819 3.012 5.08 3.007 11.381-.005 6.367-.33 7.553-3.196 11.69-2.034 2.933-4.814 5.388-7.664 6.768-4.445 2.151-6.123 2.224-18.478.806-2.232-.257-5.884 2.847-24.495 20.814l-21.872 21.116v5.885c0 13.206-7.925 21.582-20.472 21.635-6.517.027-9.134-.991-14.124-5.5-4.345-3.925-7.667-12.354-6.58-16.69.533-2.121-.599-2.808-16.159-9.808l-16.732-7.527-4.618 2.042c-4.41 1.95-8.974 2.133-17.873.716-1.512-.24-6.465 3.95-19.055 16.12L61.984 230.78l1.488 4.216c1.97 5.588 1.846 10.521-.39 15.349-4.858 10.494-17.134 15.21-27.319 10.495zm14.279-13.598c2.776-3.53 2.627-7.793-.378-10.798-7.155-7.155-17.637 2.812-11.355 10.798 1.582 2.012 2.924 2.608 5.867 2.608 2.942 0 4.284-.596 5.866-2.608zm127.145-25.492c8.747-3.655 4.264-17.15-4.93-14.842-2.97.745-6.35 4.855-6.35 7.721 0 3.547 3.63 7.521 7.702 8.437.154.034 1.764-.558 3.578-1.316zm-63.288-39.416c2.322-5.522-.163-10.069-6.161-11.268-2.612-.523-3.614-.12-6.236 2.502-2.623 2.622-3.025 3.625-2.503 6.236.343 1.712 1.332 3.896 2.199 4.854 3.393 3.749 10.71 2.41 12.701-2.324zm139.144-28.484c1.81 0 4.906-4.44 4.906-7.034 0-4.087-.94-5.755-4.186-7.434-5.37-2.777-11.65 1.029-11.65 7.06 0 4.278 5.209 8.94 8.741 7.824.725-.229 1.71-.416 2.189-.416zM349 193.79v-46.165l9.65.573c16.982 1.007 33.062 6.565 46.18 15.961 7.573 5.425 17.99 16.233 22.496 23.341 8.323 13.128 13.716 31.073 13.716 45.636v6.818H349zm78.646 29.587c-.965-6.963-5.708-20.275-9.5-26.664-7.394-12.454-22.183-25.159-35.663-30.636-6.346-2.579-19.459-5.519-20.831-4.67-.94.58-1.052 65.075-.116 66.011.363.363 15.533.66 33.71.66h33.05zM38.237 156.82v-7.917H50.114v15.835H38.237zm0-32.66v-7.917H50.114v15.835H38.237zm0-31.717v-7.965l6.186.295 6.186.294.289 7.67.289 7.67h-12.95zm28.701-1.437v-6.433h15.836v12.866H66.938zm31.87.247.295-6.186 7.67-.289 7.67-.289v12.95H98.515zm32.46-.289v-6.475l7.67.29 7.67.288.295 6.186.295 6.186h-15.93zm31.67.042v-6.433h15.836v12.866h-15.836z" />
    </symbol>
    <symbol id="search" viewBox="0 0 181.37 181.373">
        <path d="M163.032 181.459c-4.058-.795-4.365-1.06-24.813-21.357a19725.48 19725.48 0 0 0-26.114-25.883l-6.808-6.72-4.35 2.16c-21.749 10.79-47.578 9.251-67.762-4.038C17.428 115.245 6.832 99.063 3.43 80.178c-.796-4.423-1.091-14.163-.564-18.645C5.63 38.03 19.239 18.333 39.91 7.92 68.22-6.343 102.667.722 122.787 24.916c7.172 8.624 11.779 17.97 14.318 29.048 2.27 9.901 2.082 21.24-.523 31.652-1.71 6.833-5.286 14.991-8.795 20.068l-1.591 2.302 25.666 25.506c24.494 24.34 25.72 25.618 26.824 27.985 1.075 2.305 1.156 2.742 1.156 6.2 0 3.293-.108 3.95-.95 5.744-1.857 3.964-5.864 7.138-10.137 8.032-2.136.447-3.466.448-5.723.006zm-86.275-69.222c5.494-.804 9.349-2.033 14.062-4.486 9.834-5.116 17.73-14.293 21.29-24.74 2.97-8.723 3.12-18.684.407-27.271-3.97-12.568-13.341-22.775-25.45-27.721-1.384-.565-4.19-1.452-6.235-1.971-3.367-.855-4.34-.944-10.273-.944-5.932 0-6.906.09-10.273.944-11.017 2.796-20.254 9.249-26.27 18.351-4.822 7.295-6.92 13.839-7.276 22.69-.507 12.593 4.009 24.012 13.034 32.96 9.804 9.72 23.347 14.183 36.984 12.188z" />
    </symbol>
    <symbol id="student" viewBox="0 0 512 512">
        <path d="M34.465 510.172c-2.377-2.377-2.465-2.946-2.465-16.01v-13.546h-7.134c-9.33 0-14.515-1.65-18.866-6-4.238-4.238-6-9.523-6-18s1.762-13.761 6-18c4.35-4.35 9.537-6 18.866-6H32v-32h-7.134c-9.33 0-14.515-1.65-18.866-6-4.238-4.238-6-9.523-6-18s1.762-13.761 6-18c4.35-4.35 9.537-6 18.866-6H32v-32h-7.134c-9.33 0-14.515-1.65-18.866-6-4.238-4.238-6-9.523-6-18s1.762-13.761 6-18c4.35-4.35 9.537-6 18.866-6H32v-32h-7.134c-9.33 0-14.515-1.65-18.866-6-4.238-4.238-6-9.523-6-18s1.762-13.761 6-18c4.35-4.35 9.537-6 18.866-6H32v-32h-7.134c-9.33 0-14.515-1.65-18.866-6-4.238-4.238-6-9.523-6-18s1.762-13.761 6-18c4.35-4.35 9.537-6 18.866-6H32v-32h-7.134c-9.33 0-14.515-1.65-18.866-6-4.238-4.238-6-9.523-6-18s1.762-13.761 6-18c4.35-4.35 9.537-6 18.866-6H32V19.071c0-13.069.087-13.633 2.468-16.014L36.936.59l177.782.264 177.782.263 6.296 3.414c6.844 3.71 11.007 8.243 14.475 15.757l2.229 4.83v463l-2.62 5.586c-3.33 7.1-8.693 12.463-15.794 15.793l-5.586 2.62-177.285.261-177.284.26ZM328 267.071V37.525l2.455-2.454c3.247-3.248 7.843-3.248 11.09 0L344 37.525v459.091h16v-480H48v16h7.134c9.33 0 14.515 1.65 18.866 6 4.238 4.239 6 9.523 6 18s-1.762 13.762-6 18c-4.35 4.35-9.537 6-18.866 6H48v32h7.134c9.33 0 14.515 1.65 18.866 6 4.238 4.239 6 9.523 6 18s-1.762 13.762-6 18c-4.35 4.35-9.537 6-18.866 6H48v32h7.134c9.33 0 14.515 1.65 18.866 6 4.238 4.239 6 9.523 6 18s-1.762 13.762-6 18c-4.35 4.35-9.537 6-18.866 6H48v32h7.134c9.33 0 14.515 1.65 18.866 6 4.238 4.239 6 9.523 6 18s-1.762 13.762-6 18c-4.35 4.35-9.537 6-18.866 6H48v32h7.134c9.33 0 14.515 1.65 18.866 6 4.238 4.239 6 9.523 6 18s-1.762 13.762-6 18c-4.35 4.35-9.537 6-18.866 6H48v32h7.134c9.33 0 14.515 1.65 18.866 6 4.238 4.239 6 9.523 6 18s-1.762 13.762-6 18c-4.35 4.35-9.537 6-18.866 6H48v16h280Zm-197.545-92.91L128 171.708V37.525l2.455-2.454 2.454-2.455H315.09l2.455 2.455L320 37.525v134.182l-2.455 2.455-2.454 2.454H132.91ZM304 104.617v-56H144v112h160zm-149.545 37.546c-1.548-1.548-2.455-3.597-2.455-5.546 0-1.948.907-3.998 2.455-5.545l2.454-2.455H283.09l2.455 2.455c1.548 1.547 2.455 3.597 2.455 5.545s-.907 3.998-2.455 5.546l-2.454 2.454H156.91Zm0-32c-1.548-1.548-2.455-3.598-2.455-5.546 0-1.948.907-3.998 2.455-5.545l2.454-2.455H283.09l2.455 2.455c1.548 1.547 2.455 3.597 2.455 5.545s-.907 3.998-2.455 5.546l-2.454 2.454H156.91Zm0-32c-1.548-1.548-2.455-3.598-2.455-5.546 0-1.948.907-3.998 2.455-5.545l2.454-2.455H283.09l2.455 2.455c1.548 1.547 2.455 3.597 2.455 5.545s-.907 3.998-2.455 5.546l-2.454 2.454H156.91Zm238.201 415.861c1.496-1.117 3.648-3.273 4.782-4.792l2.062-2.762V26.763L397.438 24c-3.917-5.247-7.024-6.796-14.47-7.217L376 16.39v480.452l6.968-.394c4.989-.282 7.74-.97 9.688-2.425zM62.8 463.416c1.558-1.558 1.558-12.042 0-13.6-1.7-1.7-43.9-1.7-45.6 0-1.558 1.558-1.558 12.042 0 13.6 1.7 1.7 43.9 1.7 45.6 0zm0-80c1.558-1.558 1.558-12.042 0-13.6-1.7-1.7-43.9-1.7-45.6 0-1.558 1.558-1.558 12.042 0 13.6 1.7 1.7 43.9 1.7 45.6 0zm0-80c1.558-1.558 1.558-12.042 0-13.6-1.7-1.7-43.9-1.7-45.6 0-1.558 1.558-1.558 12.042 0 13.6 1.7 1.7 43.9 1.7 45.6 0zm0-80c1.558-1.558 1.558-12.042 0-13.6-1.7-1.7-43.9-1.7-45.6 0-1.558 1.558-1.558 12.042 0 13.6 1.7 1.7 43.9 1.7 45.6 0zm0-80c1.558-1.558 1.558-12.042 0-13.6-1.7-1.7-43.9-1.7-45.6 0-1.558 1.558-1.558 12.042 0 13.6 1.7 1.7 43.9 1.7 45.6 0zm0-80c1.558-1.558 1.558-12.042 0-13.6-1.7-1.7-43.9-1.7-45.6 0-1.558 1.558-1.558 12.042 0 13.6 1.7 1.7 43.9 1.7 45.6 0zm412.358 447.45c-1.3-1.103-6.709-14.181-14.623-35.36l-12.558-33.611.261-208.89.262-208.889 2.695-5.107c3.996-7.575 7.01-10.686 14.004-14.457 5.754-3.104 7.038-3.398 14.801-3.398 7.761 0 9.047.295 14.796 3.394 6.84 3.689 11.003 8.216 14.475 15.739l2.229 4.83.26 208.394.259 208.396-12.557 33.604c-7.912 21.176-13.32 34.252-14.62 35.355-1.135.963-3.314 1.75-4.842 1.75-1.528 0-3.707-.787-4.842-1.75zm12.608-49.582c2.329-6.233 4.234-11.633 4.234-12 0-.367-5.4-.668-12-.668s-12 .3-12 .668c0 .367 1.905 5.767 4.234 12l4.235 11.332h7.062ZM496 260.616v-172h-8v331.091l-2.455 2.455c-3.247 3.247-7.843 3.247-11.09 0L472 419.707V88.616h-8v344h32zm0-192v-4h-32v8h32zm-.162-30.93c-.365-11.81-1.234-14.037-7.223-18.508-3.872-2.891-13.358-2.891-17.23 0-5.989 4.471-6.858 6.697-7.223 18.508l-.339 10.93h32.354Z" />
    </symbol>
    <symbol id="teacher" viewBox="0 0 512 512">
        <path d="M47.663 510.501c-13.743-3.025-24.078-9.039-34.281-19.945l-6.219-6.648V368.917l7.75-7.813c8.486-8.555 16.587-13.586 27.75-17.233 6.768-2.211 8.431-2.3 50.215-2.663l43.215-.376-8.382-9.967c-22.214-26.413-38.833-59.477-43.67-86.884-1.906-10.808-1.662-31.656.492-42 8.065-38.715 33.062-71.772 67.13-88.775 7.593-3.79 21.925-8.558 31-10.314 7.887-1.527 29.109-1.831 40.662-.584l7.662.827.708-6.827c3.283-31.652 21.985-62.227 48.418-79.154C294.378 8.019 312.86 1.759 329.57.404l8.634-.701-.27 21.389-.271 21.389-6 .59c-22.092 2.173-41.31 15.462-51.318 35.49-3.242 6.486-6.182 16.448-6.182 20.946 0 2.655.127 2.718 4.25 2.089 11.661-1.78 30.393-1.872 40.255-.198 51.496 8.742 93.198 49.799 102.032 100.454 2.106 12.079 1.897 32.822-.454 44.95-5.848 30.166-23.283 63.33-45.954 87.411l-6.371 6.768H508.163v42.594l-6.587 1.128c-13.77 2.359-25.214 10.994-31.484 23.757-3.276 6.667-3.429 7.472-3.429 18 0 10.314.204 11.452 3.185 17.744 6.244 13.18 19.482 23.113 32.61 24.468l5.705.589v42.72l-227.25-.08c-184.378-.064-228.382-.328-233.25-1.4Zm34.5-84.114v-42.594l-14.326.344c-13.686.329-14.511.467-18.491 3.102-2.291 1.518-5.407 4.634-6.924 6.925l-2.759 4.165-.312 26.52c-.348 29.579.063 32.135 6.074 37.831 5.988 5.673 7.986 6.217 22.988 6.26l13.75.04zm351.996 42.344c-.002-.138-1.776-4.75-3.942-10.25l-3.937-10-55.078-.259-55.079-.258.27-21.242.27-21.241 54.908-.5 54.907-.5 2.202-6.527c1.21-3.59 2.94-7.956 3.842-9.7.903-1.746 1.641-3.421 1.641-3.723 0-.303-69.75-.55-155-.55h-155v85h155c85.25 0 154.998-.113 154.996-.25zM231.663 338.253c2.75-.85 7.951-3.284 11.558-5.409s6.879-3.863 7.27-3.863c.392 0 2.513 1.137 4.713 2.526 11.13 7.025 15.554 8.6 24.207 8.612 15.697.022 31.532-7.252 48.793-22.414 26.37-23.164 46.539-57.546 49.956-85.16 1.814-14.658-1.356-32.498-8.152-45.89-7.898-15.562-22.573-29.595-38.498-36.816-11.655-5.285-22.068-7.145-36.847-6.584-15.08.573-22.461 2.505-35.155 9.202l-8.155 4.303-5.279-3.015c-2.903-1.658-8.458-4.126-12.344-5.484-41.328-14.445-82.464 1.538-100.935 39.22-6.88 14.034-8.101 19.59-8.025 36.5.058 12.791.387 15.56 2.786 23.5 6.734 22.287 21.511 46.542 39.037 64.074 17.615 17.622 32.766 26.486 48.562 28.413 6.339.773 9.528.442 16.508-1.715z" />
    </symbol>
    <symbol id="thesis" viewBox="0 0 512 512">
        <path d="M47 511.056c-22.034-4.75-40.833-23.732-45.496-45.94-2.212-10.536-2.212-406.464 0-417C6.24 25.562 25.107 6.772 47.712 2.096 53.847.829 68.252.644 144.212.862l89.288.255-38 19.5-38 19.5-52.165.5-52.165.5-4.258 3c-2.342 1.65-5.306 4.983-6.585 7.407L40 55.931v169.842c0 93.414.113 169.843.25 169.843.138 0 3.4-.667 7.25-1.483 6.018-1.274 29.54-1.485 167.593-1.5l160.592-.017 4.408-2.327c2.424-1.28 5.757-4.242 7.407-6.583l3-4.256.5-24.002.5-24.002 7.086 8.835c3.897 4.86 12.795 15.226 19.773 23.038l12.687 14.203-1.481 7.106c-4.774 22.895-23.443 41.734-46.065 46.484-5.988 1.257-30.141 1.472-167.054 1.487l-160.053.017-5.264 2.623c-7.64 3.808-10.629 8.718-10.629 17.468 0 5.872.385 7.284 3 10.996 1.65 2.343 5 5.316 7.445 6.606l4.445 2.347 165.555-.29 165.555-.292 8.294-2.224c10.983-2.946 20.69-7.157 29.224-12.677l6.982-4.517-.017 2.73c-.01 1.502-.68 5.88-1.487 9.73-4.714 22.453-23.544 41.282-45.996 45.996-10.218 2.145-326.532 2.093-336.5-.056zm382.55-196.138c-15.144-18.901-25.882-36.519-29.097-47.733-3.584-12.502 1.417-27.945 12.076-37.293l5.446-4.776.012-23.293.013-23.293-35.25 17.93c-40.034 20.364-43.296 21.465-57.62 19.442-6.977-.985-10.592-2.583-42.263-18.681-19.049-9.683-34.911-17.605-35.25-17.605-.34 0-.617 12.763-.617 28.361v28.362l7.25 3.043c24.426 10.252 44.847 13.74 80.368 13.723l24.118-.01.526 9.546c.384 6.984 1.367 12.056 3.66 18.9 1.723 5.144 2.916 9.57 2.652 9.835-1.2 1.199-28.607 2.372-43.074 1.844-25.34-.925-47.433-4.437-67.267-10.692-14.324-4.517-32.546-13.753-40.784-20.671l-6.949-5.836-.26-48.622-.259-48.621-19.74-10.164c-22.301-11.48-27.349-15.496-31.912-25.387-2.392-5.185-2.82-7.4-2.82-14.61 0-7.213.428-9.427 2.82-14.611 5.52-11.964 4.885-11.573 85.042-52.425 40.08-20.426 74.73-37.841 77-38.7C322.723.86 339.977.63 345.5 2.508c2.2.748 36.85 18.057 77 38.465 80.703 41.021 80.605 40.961 86.121 52.922 2.446 5.304 2.87 7.476 2.87 14.722 0 7.246-.424 9.418-2.87 14.723-4.579 9.929-10.207 14.402-31.861 25.325l-18.74 9.452-.01 33.08-.01 33.081 4.419 3.174c5.622 4.037 9.893 9.437 13.312 16.83 2.214 4.786 2.701 7.273 2.713 13.835.013 6.862-.458 9.104-3.312 15.76-1.83 4.268-6.843 13.043-11.14 19.5-8.221 12.351-23.68 32.24-25.061 32.24-.446 0-4.668-4.814-9.382-10.698zm-72.503-150.052c12.6-6.462 22.917-11.975 22.927-12.25.011-.275-15.068-8.15-33.509-17.5-36.068-18.288-37.313-19.163-39.65-27.905-.98-3.66-.972-5.557.036-9.327 2.628-9.827 9.292-14.814 19.649-14.705 5.785.061 7.67.9 52.5 23.39l46.5 23.325 20.25-10.222c11.137-5.622 20.25-10.593 20.25-11.047 0-.453-9.113-5.424-20.25-11.046-24.82-12.53-64.439-32.721-91.423-46.593-11.096-5.703-21.094-10.37-22.218-10.37-1.124 0-20.846 9.602-43.827 21.337a58828.554 58828.554 0 0 1-66.032 33.67c-13.338 6.784-24.25 12.646-24.25 13.028 0 .382 14.287 7.946 31.75 16.808 17.462 8.862 47.05 23.96 65.75 33.55 18.7 9.59 35.044 17.474 36.32 17.521 1.275.048 12.627-5.201 25.227-11.664z" />
    </symbol>
</svg>