<svg width="108.897" height="108.074" xmlns="http://www.w3.org/2000/svg"><g transform="translate(-130.024 -14.058)"><circle cx="174.422" cy="118.136" r="3.973" fill="#0f2027"/><circle cx="184.561" cy="118.114" r="3.973" fill="#0f2027"/><circle cx="194.69" cy="118.158" r="3.973" fill="#0f2027"/><path d="M130.024 100.195c19.267 7.698 36.436 11.955 54.537 11.955 19.519 0 39.066-5.27 54.36-11.858"/><path d="M179.172 98.266c-10.75-13.043-10.725-5.58-25.2-10.762-7.207-3.141-11.245-8.76-13.081-12.462-1.619-3.266-2.308-11.592.823-18.045 4.168-8.59 11.068-11.35 11.068-11.35s-3.41 14.27.041 22.235c4.104 9.471 11.049 6.187 20.772 13.524 9.456 7.135 5.577 16.86 5.577 16.86z" fill="#b84e44"/><path d="M181.947 98.586c-.404-.404-.276-.862-.276-.862 1.832-16.228-5.207-19.12-15.39-26.814-7.106-5.486-9.033-13.593-9.911-18.584-1.86-10.575-.78-21.005 11.391-30.936 16.087-13.126 34.124-4.625 34.124-4.625s-28.78 13.607-17.413 36.622c1.597 3.234 4.171 5.128 6.688 8.161 2.437 2.939 6.003 8.585 6.373 14.196 1.014 15.398-12.46 22.522-15.586 22.842z" fill="#b84e44"/><path d="M188.267 98.807c27.047.652 32.382-21.726 32.085-28.76-.234-16.01-13.26-15.298-12.905-26.162.208-6.363 7.823-8.706 7.823-8.706s-9.325-1.812-15.954 4.198c-5.72 5.187-5.966 10.474-5.966 11.977 0 1.502-.045 5.303 1.723 8.264 1.768 2.961 7.735 12.939 7.734 17.015-.002 9.93-4.375 17.092-14.54 22.174z" fill="#b84e44"/><path d="M178.107 111.882c-8.138-.452-17.5-2.034-26.517-4.48-5.69-1.543-13.478-4.137-18.892-6.291l-2.144-.853 23.158.015c12.736.009 36.96.064 53.828.122l30.67.107-2.828 1.127c-19.369 7.715-39.16 11.258-57.275 10.253z" fill="#0f2027"/></g></svg>