<svg width="655.36" height="655.36" xmlns="http://www.w3.org/2000/svg"><path style="fill:#000;stroke-width:1.28" d="M299.222 653.105c-60.655-5.784-118.338-28.239-168.207-65.48-15.795-11.796-50.673-46.674-62.468-62.469-89.089-119.294-89.089-277.28 0-396.574 11.795-15.796 46.673-50.673 62.468-62.469 119.294-89.088 277.28-89.088 396.575 0 15.795 11.796 50.672 46.673 62.468 62.469 89.088 119.294 89.088 277.28 0 396.574-11.796 15.795-46.673 50.673-62.468 62.469-66.533 49.685-148.256 73.118-228.368 65.48zm-65.917-204.637c3.41-.978 15.28-12.092 50.231-47.033l45.766-45.753 45.12 45.054c24.816 24.78 46.742 45.656 48.723 46.393 16.504 6.136 32.553-9.914 26.418-26.417-.737-1.982-21.614-23.907-46.394-48.723l-45.053-45.12 45.619-45.76c25.09-25.168 46.255-47.018 47.033-48.556 2.427-4.798 1.707-13.672-1.496-18.424-6.006-8.912-15.501-12.275-24.847-8.8-1.981.736-24.195 21.901-49.363 47.033l-45.76 45.693-45.12-45.053c-24.816-24.78-46.741-45.657-48.723-46.393-16.503-6.136-32.553 9.913-26.417 26.417.737 1.981 21.61 23.903 46.385 48.714l45.045 45.112-46.238 46.408c-50.286 50.472-49.631 49.618-46.611 60.835 2.108 7.83 11.1 15.077 19.288 15.544 1.06.06 3.938-.466 6.394-1.17z"/></svg>