<svg width="210mm" height="297mm" viewBox="0 0 210 297" xmlns="http://www.w3.org/2000/svg"><path style="fill:#000;stroke-width:.338667" d="M98.117 210.456c-1.22-.319-2.973-1.066-3.895-1.661-.922-.595-18.535-17.966-39.14-38.602-40.885-40.946-38.739-38.589-39.627-43.532-.323-1.792-.323-2.78 0-4.572.889-4.943-1.27-2.574 39.736-43.63C80.157 53.46 93.359 40.477 94.538 39.762c1.03-.624 2.876-1.314 4.402-1.645 2.25-.489 2.979-.512 5.06-.16 6.125 1.038 10.63 5.25 11.95 11.174.473 2.118.516 3.039.237 4.97-.755 5.211 1.397 2.79-33.933 38.185l-32.03 32.088 32.03 32.09c35.33 35.394 33.178 32.973 33.933 38.184 1.043 7.203-3.78 14.209-10.946 15.897-2.78.656-4.344.636-7.124-.09zm72.068-14.473c-1.07-.26-2.366-.729-2.878-1.043-.513-.314-1.44-.889-2.06-1.277-1.135-.713-59.81-65.652-61.32-67.868-2.135-3.132-2.032-6.482.294-9.578.715-.95 14.67-15.127 31.011-31.503 28.273-28.332 29.831-29.833 32.188-30.998 5.595-2.765 11.934-1.764 16.565 2.617 4.634 4.382 5.762 11.21 2.846 17.227-.978 2.017-3.257 4.404-25.263 26.461l-24.19 24.245 24.33 24.523c22.374 22.554 24.404 24.693 25.266 26.633 1.329 2.989 1.756 5.753 1.308 8.456-1.45 8.755-9.554 14.175-18.097 12.105z"/></svg>