<svg width="682.667" height="682.667" xmlns="http://www.w3.org/2000/svg"><path style="fill:#000;stroke-width:1.33333" d="M39.15 682.058c-14.201-3.397-26.899-13.962-33.536-27.903l-4.126-8.667V322.765l4.374-8.885c7.337-14.903 21.006-25.12 37.14-27.763 11.276-1.846 219.12-1.704 229.188.157 21.182 3.916 36.651 19.363 40.516 40.459 1.872 10.222 2.015 303.204.153 314.574-2.642 16.134-12.86 29.803-27.762 37.14l-8.884 4.375-116.029.217c-64.84.121-118.237-.311-121.035-.98Zm368.244-.375c-18.506-5.044-32.784-21.083-35.943-40.376-1.806-11.024-1.675-133.929.153-143.907 3.927-21.438 19.61-36.82 41.366-40.572 5.874-1.013 43.078-1.346 119.852-1.071l111.333.398 7.662 3.094c10.696 4.32 21.232 14.331 26.64 25.316l4.365 8.867v152.056l-4.127 8.667c-5.243 11.015-13.525 19.297-24.54 24.54l-8.667 4.127-116 .26c-89.127.202-117.412-.123-122.094-1.399zm2.76-283.993c-20.244-4.485-34.743-19.594-38.547-40.167-1.89-10.23-2.02-303.138-.139-314.628 2.675-16.331 13.639-30.604 29.063-37.833l7.624-3.574h237.333l8.667 4.126c11.015 5.244 19.297 13.526 24.54 24.54l4.127 8.668.414 156.666c.305 115.489.007 158.594-1.138 164-3.326 15.713-15.485 30.264-30.28 36.24l-7.663 3.093-113.333.247c-84.99.185-115.168-.16-120.667-1.378ZM41.798 227.438c-14.792-2.488-28.874-13.334-35.935-27.675l-4.374-8.885V38.822l4.126-8.667c2.27-4.767 6.77-11.31 10-14.54 3.23-3.231 9.774-7.731 14.54-10l8.667-4.127h237.334l7.624 3.574c15.424 7.229 26.388 21.502 29.062 37.833 1.822 11.121 1.703 134-.139 143.961-3.878 20.978-19.535 36.635-40.512 40.513-9.254 1.71-220.258 1.774-230.393.07z"/></svg>