<svg width="655.36" height="655.36" xmlns="http://www.w3.org/2000/svg"><path d="M315.958 654.03c-26.99-5.861-46.084-33.926-41.579-61.112 3.141-18.954-4.531-10.375 128.189-143.34l121.056-121.28-121.056-121.28C269.848 74.054 277.52 82.633 274.379 63.678c-5.883-35.502 26.51-67.7 62.272-61.899 18.969 3.077 9.648-5.385 165.363 150.135 94.478 94.36 143.549 144.258 146.249 148.713 2.36 3.894 4.968 10.872 6.22 16.64 1.845 8.503 1.932 11.256.6 19.122-3.238 19.13 5.269 9.76-150.23 165.454-94.597 94.715-144.253 143.546-148.73 146.26-6.637 4.022-20.815 7.906-28.294 7.751-2.112-.044-7.454-.864-11.87-1.823zM43.163 598.996c-21.798-6.122-37.392-24.147-41.234-47.662-3.246-19.864 3.29-37.466 20.81-56.05 37.739-40.033 155.324-164.073 162.736-171.67l8.942-9.166-82.414-86.857C5.683 115.538 11.253 121.64 7.036 112.618c-20.319-43.468 15.24-92.832 60.052-83.366 17.756 3.751 15.242 1.389 128.64 120.9C323.069 284.354 317.756 278.566 322.2 287.978c5.325 11.276 7.182 23.94 5.208 35.52-2.356 13.829-7.257 22.955-19.76 36.8-24.35 26.966-214.433 226.117-219.458 229.93-11.753 8.917-31.089 12.681-45.027 8.767z"/></svg>