<svg width="512" height="512" xmlns="http://www.w3.org/2000/svg"><path style="fill:#000" d="M76.299 512.898c-33.87-6.129-61.87-32.322-71.016-66.434-1.887-7.037-2.265-10.908-2.2-22.5.097-17.043 2.038-25.353 9.342-40 5.78-11.586 12.907-20.726 22.226-28.5l6.593-5.5-9.889-.732c-7.523-.557-11.06-1.327-14.788-3.216-16.156-8.186-18.728-30.414-4.872-42.098 4.738-3.995 9.176-5.563 17.538-6.195 7.32-.554 7.423-.601 9.906-4.536 11.909-18.864 11.984-47.811.179-68.472l-3-5.25h-7.23c-5.775 0-8.277-.522-12.429-2.59-16.357-8.152-18.968-29.89-5.023-41.826 5.436-4.652 12.067-6.585 22.6-6.585h8.408l-4.84-3.838C3.802 137.66-6.92 91.406 11.921 52.965c11.248-22.95 32.87-40.707 58.044-47.667 7.494-2.072 10.484-2.236 47.358-2.595l39.358-.384 2.392 2.247c3.155 2.965 3.19 7.8.077 10.724-2.287 2.149-2.736 2.175-38.042 2.175-28.769 0-37.228.31-43.429 1.59-15.375 3.176-27.11 9.636-38.368 21.122-15.448 15.76-22.817 35.004-21.541 56.25.747 12.436 2.647 19.444 8.416 31.037 8.454 16.99 25.279 31.463 44 37.848l7.779 2.652 206.907.262c229.843.29 210.173.88 213.205-6.376 1.754-4.197.532-10.04-2.713-12.977-2.057-1.862-7.16-1.92-207.754-2.408l-205.645-.5-6.5-2.315C38.2 130.384 26.802 84.03 53.81 55.59c5.65-5.951 14.67-11.698 22.582-14.39l6.573-2.234 205.132-.27 205.132-.268 2.496-2.495c3.213-3.214 4.09-7.691 2.333-11.899-2.982-7.136 10.528-6.568-156.316-6.568-148.944 0-150.295-.018-152.278-2-2.652-2.653-2.652-8.348 0-11 1.983-1.983 3.334-2 152.319-2 165.589 0 156.898-.328 163.546 6.171 4.626 4.523 7.27 10.219 7.883 16.982 1.497 16.507-8.856 27.847-25.424 27.847h-7.283l-3.03 5.25c-11.016 19.088-11.686 43.718-1.734 63.75l4.223 8.5 8 .598c11.653.872 19.353 5.601 23.942 14.705 6.115 12.13-.075 28.857-12.886 34.823-4.22 1.965-6.709 2.36-15.056 2.395l-10 .042 3 2.181c6.38 4.64 16.658 15.345 21.61 22.508 24.098 34.859 20.029 82.63-9.61 112.802-4.4 4.479-9.575 9.332-11.5 10.784l-3.5 2.64 9.884.01c12.433.014 17.014 1.37 22.233 6.582 10.237 10.222 9.67 28.824-1.169 38.341-4.89 4.293-7.475 5.201-16.948 5.953l-8 .635-4.223 8.5c-9.952 20.032-9.282 44.661 1.734 63.75l3.03 5.25 7.23.01c16.75.023 26.985 11.212 25.476 27.853-.944 10.409-7.401 19.067-16.16 21.668-7.202 2.139-408.91 2.046-420.752-.097zm418.049-15.064c3.093-2.167 5.237-7.519 4.496-11.224-.328-1.638-1.799-4.131-3.269-5.54l-2.673-2.56-61.614-.273c-58.978-.26-61.705-.354-63.719-2.177-2.746-2.486-2.8-7.9-.105-10.596 1.943-1.942 3.334-2 48.5-2 25.928 0 46.5-.387 46.5-.875 0-.482-1.064-3.294-2.364-6.25-9.19-20.886-8.583-43.318 1.87-69.124.667-1.648-1.408-1.75-35.399-1.75h-36.107v16c0 14.666-.166 16.166-2 18-1.118 1.118-3.333 2-5.024 2-2.515 0-5.496-2.338-17.717-13.893l-14.692-13.893-5.186 4.643c-2.852 2.553-9.72 8.805-15.262 13.893-10.924 10.026-14.08 11.289-18.119 7.25-1.833-1.834-2-3.334-2-18.017V385.43l-113.75.267-113.75.267-6.5 3.086c-19.643 9.328-28.09 32.349-18.982 51.728 4.924 10.474 16.062 19.125 27.782 21.577 3.712.777 41.965 1.109 127.75 1.109 121.117 0 122.472.021 124.45 2 2.528 2.527 2.567 7.078.089 10.139l-1.912 2.36H83.964l-7-2.208c-31.934-10.075-47.105-45.731-32.248-75.791 5.764-11.664 17.14-21.65 30.032-26.363l7.217-2.637 114.25-.271 114.25-.27v-20.96h-114.34c-109.682 0-114.648.08-121.886 1.93-25.9 6.625-47.65 28.072-54.325 53.57-5.164 19.723-1.68 42.124 9.243 59.449 7.62 12.086 22.94 24.833 35.974 29.934 13.197 5.165 3.592 4.948 222.861 5.036 187.089.075 204.22-.054 206.356-1.55zm-143.402-122.37c1.823 0 5.508 2.789 13.216 10 5.877 5.5 11.05 10 11.495 10 .444 0 .807-29.025.807-64.5v-64.5h-51v130.172l11.477-10.586c8.272-7.63 12.183-10.586 14.005-10.586zm143.402-6.63c5.41-3.79 6.082-12.131 1.358-16.855l-2.514-2.515H390.465v21h50.777c45.326 0 51.027-.175 53.106-1.63zm-184.384-45.37v-10.5l-142.097-.253-142.097-.253-3.403 2.287c-6.78 4.556-6 15.032 1.356 18.234 2.748 1.196 24.799 1.379 144.742 1.198l141.5-.213zm123.3 9.966c30.168-3.782 53.998-24.094 63.343-53.99 3.366-10.768 3.367-30.16.004-40.976-4.223-13.579-9.62-22.55-19.606-32.585-7.651-7.689-10.5-9.8-18.54-13.744-18.327-8.987 4.808-8.128-227.079-8.433l-205.577-.27-3.423 2.3c-7.123 4.787-5.89 15.707 2.08 18.426 2.663.909 51.868 1.207 206.067 1.25 183.322.051 203.085.21 208 1.669 21.195 6.292 35.636 22.71 38.99 44.33 3.901 25.14-12.765 51.37-37.559 59.112-2.393.747-13.038 1.49-26.5 1.847l-22.5.599-.29 9.424c-.159 5.184-.06 10.022.22 10.75.637 1.662 29.842 1.862 42.37.291zm-122.8-51.466v-15.5H229.6c-80.295 0-80.883-.014-83.5-2.072-3.332-2.621-3.537-7.338-.46-10.613l2.174-2.315h131.715c127.202 0 131.794.065 134.026 1.872 3.21 2.6 3.21 8.657 0 11.257-1.927 1.56-4.04 1.871-12.7 1.871h-10.39V297.602l22.25-.319 22.25-.319 5.979-2.93c15.563-7.63 24.63-25 21.609-41.4-3.233-17.543-16.303-29.972-33.908-32.243-3.674-.473-89.42-.876-190.546-.894-174.667-.03-183.839.055-183.305 1.717.31.963 1.95 5.532 3.645 10.153 7.34 20.005 6.18 41.67-3.445 64.347-.705 1.662 5.742 1.75 127.365 1.75h128.106Zm151.506-152.25c-10.453-25.806-11.06-48.238-1.87-69.124 1.3-2.956 2.364-5.775 2.364-6.265 0-.519-79.043-.78-189.302-.626l-189.302.266-7.62 3.765C43.802 73.764 47.39 119.1 81.966 130.062c3.168 1.005 43.136 1.283 192.356 1.336 179.007.063 188.322-.02 187.649-1.684z"/></svg>