<svg width="512" height="512" xmlns="http://www.w3.org/2000/svg"><path style="fill:#000" d="M14.626 511.3c-4.781-1.522-11.283-8.288-12.78-13.3-1.604-5.37-1.758-113.94-.17-119.661 1.365-4.916 6.39-10.568 11.432-12.858 3.841-1.745 13.987-1.82 243.508-1.82 229.521 0 239.667.075 243.509 1.82 5.041 2.29 10.066 7.942 11.431 12.858 1.589 5.72 1.435 114.291-.17 119.661-1.587 5.313-8.073 11.799-13.386 13.386-5.647 1.688-478.069 1.604-483.374-.085zm1.41-181.095c-6.09-1.907-10.188-5.415-12.972-11.107L.569 314l.273-58.52.274-58.522 3.01-4.865c2.136-3.456 4.447-5.607 7.972-7.421l4.965-2.555H496.17l4.964 2.555c3.526 1.814 5.836 3.965 7.973 7.42l3.01 4.866.28 58.08c.315 64.816.452 63.343-6.547 70.14-7.127 6.922 11.51 6.446-249.665 6.372-188.607-.053-236.89-.323-240.149-1.344Zm-2.928-182.454c-5.042-2.29-10.067-7.942-11.432-12.858-1.588-5.72-1.434-114.291.17-119.66 1.587-5.314 8.073-11.8 13.386-13.387C21.238.052 491.995.052 498 1.846c5.313 1.587 11.799 8.073 13.386 13.386 1.605 5.37 1.759 113.94.17 119.661-1.365 4.916-6.39 10.568-11.431 12.858-3.842 1.745-13.988 1.821-243.509 1.821s-239.667-.076-243.508-1.82z"/></svg>