<svg width="682.667" height="682.667" xmlns="http://www.w3.org/2000/svg"><path style="fill:#000;stroke-width:1.33333" d="M310.822 682.364c-81.69-8.443-151.716-41.622-209.407-99.218C72.05 553.828 53.63 528.23 36.14 492.439c-16.452-33.669-25.904-63.61-31.567-100-4.161-26.732-4.161-73.268 0-100 11.56-74.282 43.715-137.612 96.842-190.74 29.387-29.386 54.999-47.81 90.74-65.275 33.669-16.452 63.609-25.904 100-31.567 26.762-4.166 73.285-4.162 100 .008 36.951 5.767 66.39 15.052 100 31.54 35.927 17.623 61.393 35.948 90.74 65.294 29.345 29.346 47.67 54.812 65.294 90.74 16.326 33.28 25.875 63.548 31.548 100 4.16 26.731 4.16 73.268 0 100-11.532 74.093-43.85 137.746-96.843 190.739-29.346 29.346-54.812 47.671-90.74 65.295-33.205 16.29-64.223 26.072-99.588 31.41-20.547 3.102-63.205 4.396-81.744 2.48zm194.123-315.028c3.232-1.706 7.677-5.658 9.877-8.781 3.62-5.14 4-6.67 4-16.116s-.38-10.977-4-16.116c-2.2-3.124-6.645-7.076-9.877-8.782l-5.876-3.102H185.24l-5.876 3.102c-3.232 1.706-7.677 5.658-9.877 8.782-3.62 5.14-4 6.67-4 16.116s.38 10.976 4 16.116c2.2 3.123 6.645 7.075 9.877 8.781l5.876 3.103h313.828z"/></svg>