<svg width="438.857" height="438.857" xmlns="http://www.w3.org/2000/svg"><path style="fill:#000;stroke-width:.857143" d="M199.286 438.193c-40.618-3.873-79.245-18.91-112.64-43.848-10.576-7.899-33.932-31.254-41.83-41.831-59.658-79.885-59.658-185.68 0-265.564 7.898-10.577 31.254-33.932 41.83-41.831 79.885-59.658 185.68-59.658 265.564 0 10.577 7.899 33.933 31.254 41.832 41.831 59.657 79.885 59.657 185.679 0 265.564-7.9 10.577-31.255 33.932-41.832 41.831-44.553 33.272-99.278 48.963-152.924 43.848zM120 254.683c17.163-5.147 28.215-22.405 25.707-40.142-2.207-15.62-15.181-28.594-30.802-30.802-23.898-3.378-44.562 17.285-41.184 41.184 3.056 21.622 25.433 36.012 46.279 29.76zm109.714 0c17.163-5.147 28.215-22.405 25.708-40.142-2.208-15.62-15.182-28.594-30.803-30.802-23.898-3.378-44.562 17.285-41.184 41.184 3.057 21.622 25.433 36.012 46.28 29.76zm109.715 0c17.162-5.147 28.214-22.405 25.707-40.142-2.208-15.62-15.182-28.594-30.802-30.802-23.899-3.378-44.562 17.285-41.184 41.184 3.056 21.622 25.433 36.012 46.279 29.76z"/></svg>