<svg width="682.667" height="682.667" xmlns="http://www.w3.org/2000/svg"><path d="M308.357 682.114c-81.69-8.442-151.715-41.621-209.406-99.218-29.366-29.318-47.787-54.915-65.276-90.707-16.452-33.668-25.903-63.609-31.567-100-4.16-26.731-4.16-73.268 0-100 11.561-74.281 43.716-137.612 96.843-190.74 29.386-29.386 54.998-47.81 90.74-65.275 33.668-16.452 63.608-25.903 100-31.567 26.761-4.165 73.285-4.161 100 .008 36.95 5.768 66.389 15.052 100 31.54 35.927 17.623 61.393 35.948 90.739 65.295 29.346 29.346 47.67 54.812 65.295 90.739 16.326 33.281 25.874 63.549 31.548 100 4.16 26.732 4.16 73.268 0 100-11.532 74.094-43.85 137.747-96.843 190.74-29.346 29.346-54.812 47.67-90.74 65.294-33.206 16.29-64.224 26.073-99.588 31.411-20.548 3.102-63.205 4.396-81.745 2.48zm44.79-165.694c3.232-1.706 7.677-5.657 9.877-8.78l4-5.677.666-65.554.667-65.553 65.554-.667 65.553-.666 5.677-4c15.964-11.247 15.964-35.42 0-46.667l-5.677-4-65.553-.667-65.554-.666-.667-65.554-.666-65.553-4-5.678c-11.247-15.964-35.42-15.964-46.667 0l-4 5.678-.667 65.553-.666 65.554-65.554.666-65.553.667-5.678 4c-15.964 11.247-15.964 35.42 0 46.667l5.678 4 65.553.666 65.554.667.666 65.553.667 65.554 4 5.677c5.426 7.702 13.635 11.883 23.333 11.883 5.363 0 9.3-.908 13.457-3.103z"/></svg>