<svg width="506.722" height="505.732" xmlns="http://www.w3.org/2000/svg"><path style="fill:#000;stroke-width:.989691" d="M2.609 250.346V6.387h380.04v93.031h87.094v262.268h-12.866V112.284H217.37v45.526h-12.866V99.418h165.279V63.789H15.475v418.64H252.01V494.304H2.609Zm289.756-215.01.272-16.083H15.475V51.92l138.309-.251 138.31-.251zm38.598 0 .272-16.083h-26.771v15.67c0 8.619.31 15.98.688 16.358.379.379 6.28.564 13.114.413l12.425-.276zm38.82.247v-16.33h-26.72v15.67c0 8.619.296 15.967.659 16.33.363.363 6.375.66 13.36.66h12.702zm-96 452.783v-5.938h96v-44.536l-63.092-.006c-36.196-.003-65.6-.416-68.976-.969-16.034-2.626-29.258-15.633-32.216-31.688-.645-3.502-.913-39.37-.751-100.454l.252-95.007H216.877l.494 97.98.495 97.98 2.189 4.091c10.705 20.014 37.969 19.39 46.847-1.072.956-2.205 2.05-6.793 2.428-10.195l.69-6.186h239.6l-.619 7.332c-1.144 13.537-6.772 23.798-16.826 30.681-10.347 7.083-8.759 6.896-61.773 7.292l-47.752.357v56.277H273.784Zm202.922-64.323c6.386-1.774 12.54-6.495 15.74-12.076 1.656-2.888 3.015-5.807 3.02-6.487.007-.982-22.004-1.237-106.785-1.237H281.886l-1.773 5.634c-.974 3.1-3.213 7.776-4.973 10.392l-3.202 4.757 100.634-.006c62.803-.003 101.95-.37 104.133-.977zM40.217 442.346v-6.433h133.608v12.866H40.217Zm0-29.69v-6.434h133.608v12.866H40.217Zm0-28.702v-6.433h133.608v12.866H40.217Zm278.756-43.036c-22.996-4.16-44.396-17.606-56.729-35.644-4.59-6.713-9.728-17.429-12.34-25.732-2.05-6.518-2.334-9.354-2.322-23.258.015-18.728 1.128-23.836 8.414-38.598 13.975-28.315 40.725-45.804 72.963-47.701l10.144-.597v80.463h80.42l-.687 9.155c-1.51 20.096-6.918 34.975-17.895 49.237-15.963 20.739-39.005 32.455-65.301 33.203-6.532.186-14.032-.051-16.667-.528zm29.075-13.384c3.902-.82 7.658-1.823 8.348-2.227.923-.541-1.588-6.858-9.535-23.992l-13.313-28.701-2.523-5.443-3.631 4.044a12817.012 12817.012 0 0 1-21.32 23.553c-20.256 22.34-19.634 19.543-5.886 26.473 4.452 2.244 11.355 4.881 15.34 5.86 9.036 2.22 23.135 2.407 32.52.433zm28.057-12.742c10.146-7.24 18.06-16.95 23.383-28.689 3.22-7.1 5.925-16.827 5.925-21.302v-3.074h-31.176c-17.146 0-31.175.296-31.175.658 0 1.066 26.013 56.744 26.51 56.744.25 0 3.19-1.951 6.533-4.337zm-73.28-35.37 23.412-25.852v-71.108l-3.71.61c-33.583 5.517-58.47 31.072-62.595 64.277-1.803 14.504 1.566 31.851 8.537 43.964 3.13 5.44 9.424 13.96 10.311 13.96.347 0 11.167-11.633 24.044-25.851zM40.216 325.067v-5.938h15.835V331.006H40.217zm31.67 0v-5.938h15.835V331.006H71.887zm31.67 0v-5.938h15.835V331.006h-15.835zm32.66 0v-5.938h15.835V331.006h-15.835zm31.67-1.484v-7.423h12.866v14.846h-12.866zm.66-23.918c-.363-.362-.66-3.925-.66-7.917v-7.258h12.866v15.835h-5.773c-3.176 0-6.07-.297-6.433-.66zm-.66-39.917v-7.918h12.866v15.835h-12.866zM35.763 260.84c-13.896-6.434-16.565-24.41-5.117-34.462 4.464-3.92 10.39-5.598 16.939-4.798l5.003.61 17.656-17.098 17.657-17.098-1.112-4.829c-4.28-18.59 18.22-32.414 32.97-20.256 4.962 4.091 6.912 8.118 7.526 15.543l.52 6.293 16.22 7.344c15.03 6.804 16.349 7.227 17.968 5.762 3.37-3.05 10.78-4.567 16.5-3.38 2.857.594 5.451 1.495 5.765 2.002.314.508 1.005.923 1.537.923s10.936-9.64 23.12-21.422c20.462-19.786 22.084-21.604 21.243-23.817-1.627-4.281-.984-9.683 1.811-15.197 7.156-14.115 26.11-15.227 35.338-2.072 2.679 3.819 3.012 5.08 3.007 11.381-.005 6.367-.33 7.553-3.196 11.69-2.034 2.933-4.814 5.388-7.664 6.768-4.445 2.151-6.123 2.224-18.478.806-2.232-.257-5.884 2.847-24.495 20.814l-21.872 21.116v5.885c0 13.206-7.925 21.582-20.472 21.635-6.517.027-9.134-.991-14.124-5.5-4.345-3.925-7.667-12.354-6.58-16.69.533-2.121-.599-2.808-16.159-9.808l-16.732-7.527-4.618 2.042c-4.41 1.95-8.974 2.133-17.873.716-1.512-.24-6.465 3.95-19.055 16.12L61.984 230.78l1.488 4.216c1.97 5.588 1.846 10.521-.39 15.349-4.858 10.494-17.134 15.21-27.319 10.495zm14.279-13.598c2.776-3.53 2.627-7.793-.378-10.798-7.155-7.155-17.637 2.812-11.355 10.798 1.582 2.012 2.924 2.608 5.867 2.608 2.942 0 4.284-.596 5.866-2.608zm127.145-25.492c8.747-3.655 4.264-17.15-4.93-14.842-2.97.745-6.35 4.855-6.35 7.721 0 3.547 3.63 7.521 7.702 8.437.154.034 1.764-.558 3.578-1.316zm-63.288-39.416c2.322-5.522-.163-10.069-6.161-11.268-2.612-.523-3.614-.12-6.236 2.502-2.623 2.622-3.025 3.625-2.503 6.236.343 1.712 1.332 3.896 2.199 4.854 3.393 3.749 10.71 2.41 12.701-2.324zm139.144-28.484c1.81 0 4.906-4.44 4.906-7.034 0-4.087-.94-5.755-4.186-7.434-5.37-2.777-11.65 1.029-11.65 7.06 0 4.278 5.209 8.94 8.741 7.824.725-.229 1.71-.416 2.189-.416zM349 193.79v-46.165l9.65.573c16.982 1.007 33.062 6.565 46.18 15.961 7.573 5.425 17.99 16.233 22.496 23.341 8.323 13.128 13.716 31.073 13.716 45.636v6.818H349zm78.646 29.587c-.965-6.963-5.708-20.275-9.5-26.664-7.394-12.454-22.183-25.159-35.663-30.636-6.346-2.579-19.459-5.519-20.831-4.67-.94.58-1.052 65.075-.116 66.011.363.363 15.533.66 33.71.66h33.05zM38.237 156.82v-7.917H50.114v15.835H38.237zm0-32.66v-7.917H50.114v15.835H38.237zm0-31.717v-7.965l6.186.295 6.186.294.289 7.67.289 7.67h-12.95zm28.701-1.437v-6.433h15.836v12.866H66.938zm31.87.247.295-6.186 7.67-.289 7.67-.289v12.95H98.515zm32.46-.289v-6.475l7.67.29 7.67.288.295 6.186.295 6.186h-15.93zm31.67.042v-6.433h15.836v12.866h-15.836z"/></svg>