<svg width="181.373" height="181.373" xmlns="http://www.w3.org/2000/svg"><path d="M163.032 181.459c-4.058-.795-4.365-1.06-24.813-21.357a19725.48 19725.48 0 00-26.114-25.883l-6.808-6.72-4.35 2.16c-21.749 10.79-47.578 9.251-67.762-4.038C17.428 115.245 6.832 99.063 3.43 80.178c-.796-4.423-1.091-14.163-.564-18.645C5.63 38.03 19.239 18.333 39.91 7.92 68.22-6.343 102.667.722 122.787 24.916c7.172 8.624 11.779 17.97 14.318 29.048 2.27 9.901 2.082 21.24-.523 31.652-1.71 6.833-5.286 14.991-8.795 20.068l-1.591 2.302 25.666 25.506c24.494 24.34 25.72 25.618 26.824 27.985 1.075 2.305 1.156 2.742 1.156 6.2 0 3.293-.108 3.95-.95 5.744-1.857 3.964-5.864 7.138-10.137 8.032-2.136.447-3.466.448-5.723.006zm-86.275-69.222c5.494-.804 9.349-2.033 14.062-4.486 9.834-5.116 17.73-14.293 21.29-24.74 2.97-8.723 3.12-18.684.407-27.271-3.97-12.568-13.341-22.775-25.45-27.721-1.384-.565-4.19-1.452-6.235-1.971-3.367-.855-4.34-.944-10.273-.944-5.932 0-6.906.09-10.273.944-11.017 2.796-20.254 9.249-26.27 18.351-4.822 7.295-6.92 13.839-7.276 22.69-.507 12.593 4.009 24.012 13.034 32.96 9.804 9.72 23.347 14.183 36.984 12.188z"/></svg>