<svg width="512" height="512" xmlns="http://www.w3.org/2000/svg"><path style="fill:#000" d="M34.465 510.172c-2.377-2.377-2.465-2.946-2.465-16.01v-13.546h-7.134c-9.33 0-14.515-1.65-18.866-6-4.238-4.238-6-9.523-6-18s1.762-13.761 6-18c4.35-4.35 9.537-6 18.866-6H32v-32h-7.134c-9.33 0-14.515-1.65-18.866-6-4.238-4.238-6-9.523-6-18s1.762-13.761 6-18c4.35-4.35 9.537-6 18.866-6H32v-32h-7.134c-9.33 0-14.515-1.65-18.866-6-4.238-4.238-6-9.523-6-18s1.762-13.761 6-18c4.35-4.35 9.537-6 18.866-6H32v-32h-7.134c-9.33 0-14.515-1.65-18.866-6-4.238-4.238-6-9.523-6-18s1.762-13.761 6-18c4.35-4.35 9.537-6 18.866-6H32v-32h-7.134c-9.33 0-14.515-1.65-18.866-6-4.238-4.238-6-9.523-6-18s1.762-13.761 6-18c4.35-4.35 9.537-6 18.866-6H32v-32h-7.134c-9.33 0-14.515-1.65-18.866-6-4.238-4.238-6-9.523-6-18s1.762-13.761 6-18c4.35-4.35 9.537-6 18.866-6H32V19.071c0-13.069.087-13.633 2.468-16.014L36.936.59l177.782.264 177.782.263 6.296 3.414c6.844 3.71 11.007 8.243 14.475 15.757l2.229 4.83v463l-2.62 5.586c-3.33 7.1-8.693 12.463-15.794 15.793l-5.586 2.62-177.285.261-177.284.26ZM328 267.071V37.525l2.455-2.454c3.247-3.248 7.843-3.248 11.09 0L344 37.525v459.091h16v-480H48v16h7.134c9.33 0 14.515 1.65 18.866 6 4.238 4.239 6 9.523 6 18s-1.762 13.762-6 18c-4.35 4.35-9.537 6-18.866 6H48v32h7.134c9.33 0 14.515 1.65 18.866 6 4.238 4.239 6 9.523 6 18s-1.762 13.762-6 18c-4.35 4.35-9.537 6-18.866 6H48v32h7.134c9.33 0 14.515 1.65 18.866 6 4.238 4.239 6 9.523 6 18s-1.762 13.762-6 18c-4.35 4.35-9.537 6-18.866 6H48v32h7.134c9.33 0 14.515 1.65 18.866 6 4.238 4.239 6 9.523 6 18s-1.762 13.762-6 18c-4.35 4.35-9.537 6-18.866 6H48v32h7.134c9.33 0 14.515 1.65 18.866 6 4.238 4.239 6 9.523 6 18s-1.762 13.762-6 18c-4.35 4.35-9.537 6-18.866 6H48v32h7.134c9.33 0 14.515 1.65 18.866 6 4.238 4.239 6 9.523 6 18s-1.762 13.762-6 18c-4.35 4.35-9.537 6-18.866 6H48v16h280Zm-197.545-92.91L128 171.708V37.525l2.455-2.454 2.454-2.455H315.09l2.455 2.455L320 37.525v134.182l-2.455 2.455-2.454 2.454H132.91ZM304 104.617v-56H144v112h160zm-149.545 37.546c-1.548-1.548-2.455-3.597-2.455-5.546 0-1.948.907-3.998 2.455-5.545l2.454-2.455H283.09l2.455 2.455c1.548 1.547 2.455 3.597 2.455 5.545s-.907 3.998-2.455 5.546l-2.454 2.454H156.91Zm0-32c-1.548-1.548-2.455-3.598-2.455-5.546 0-1.948.907-3.998 2.455-5.545l2.454-2.455H283.09l2.455 2.455c1.548 1.547 2.455 3.597 2.455 5.545s-.907 3.998-2.455 5.546l-2.454 2.454H156.91Zm0-32c-1.548-1.548-2.455-3.598-2.455-5.546 0-1.948.907-3.998 2.455-5.545l2.454-2.455H283.09l2.455 2.455c1.548 1.547 2.455 3.597 2.455 5.545s-.907 3.998-2.455 5.546l-2.454 2.454H156.91Zm238.201 415.861c1.496-1.117 3.648-3.273 4.782-4.792l2.062-2.762V26.763L397.438 24c-3.917-5.247-7.024-6.796-14.47-7.217L376 16.39v480.452l6.968-.394c4.989-.282 7.74-.97 9.688-2.425zM62.8 463.416c1.558-1.558 1.558-12.042 0-13.6-1.7-1.7-43.9-1.7-45.6 0-1.558 1.558-1.558 12.042 0 13.6 1.7 1.7 43.9 1.7 45.6 0zm0-80c1.558-1.558 1.558-12.042 0-13.6-1.7-1.7-43.9-1.7-45.6 0-1.558 1.558-1.558 12.042 0 13.6 1.7 1.7 43.9 1.7 45.6 0zm0-80c1.558-1.558 1.558-12.042 0-13.6-1.7-1.7-43.9-1.7-45.6 0-1.558 1.558-1.558 12.042 0 13.6 1.7 1.7 43.9 1.7 45.6 0zm0-80c1.558-1.558 1.558-12.042 0-13.6-1.7-1.7-43.9-1.7-45.6 0-1.558 1.558-1.558 12.042 0 13.6 1.7 1.7 43.9 1.7 45.6 0zm0-80c1.558-1.558 1.558-12.042 0-13.6-1.7-1.7-43.9-1.7-45.6 0-1.558 1.558-1.558 12.042 0 13.6 1.7 1.7 43.9 1.7 45.6 0zm0-80c1.558-1.558 1.558-12.042 0-13.6-1.7-1.7-43.9-1.7-45.6 0-1.558 1.558-1.558 12.042 0 13.6 1.7 1.7 43.9 1.7 45.6 0zm412.358 447.45c-1.3-1.103-6.709-14.181-14.623-35.36l-12.558-33.611.261-208.89.262-208.889 2.695-5.107c3.996-7.575 7.01-10.686 14.004-14.457 5.754-3.104 7.038-3.398 14.801-3.398 7.761 0 9.047.295 14.796 3.394 6.84 3.689 11.003 8.216 14.475 15.739l2.229 4.83.26 208.394.259 208.396-12.557 33.604c-7.912 21.176-13.32 34.252-14.62 35.355-1.135.963-3.314 1.75-4.842 1.75-1.528 0-3.707-.787-4.842-1.75zm12.608-49.582c2.329-6.233 4.234-11.633 4.234-12 0-.367-5.4-.668-12-.668s-12 .3-12 .668c0 .367 1.905 5.767 4.234 12l4.235 11.332h7.062ZM496 260.616v-172h-8v331.091l-2.455 2.455c-3.247 3.247-7.843 3.247-11.09 0L472 419.707V88.616h-8v344h32zm0-192v-4h-32v8h32zm-.162-30.93c-.365-11.81-1.234-14.037-7.223-18.508-3.872-2.891-13.358-2.891-17.23 0-5.989 4.471-6.858 6.697-7.223 18.508l-.339 10.93h32.354Z"/></svg>