<svg width="512" height="512" xmlns="http://www.w3.org/2000/svg"><path style="fill:#000" d="M47 511.056c-22.034-4.75-40.833-23.732-45.496-45.94-2.212-10.536-2.212-406.464 0-417C6.24 25.562 25.107 6.772 47.712 2.096 53.847.829 68.252.644 144.212.862l89.288.255-38 19.5-38 19.5-52.165.5-52.165.5-4.258 3c-2.342 1.65-5.306 4.983-6.585 7.407L40 55.931v169.842c0 93.414.113 169.843.25 169.843.138 0 3.4-.667 7.25-1.483 6.018-1.274 29.54-1.485 167.593-1.5l160.592-.017 4.408-2.327c2.424-1.28 5.757-4.242 7.407-6.583l3-4.256.5-24.002.5-24.002 7.086 8.835c3.897 4.86 12.795 15.226 19.773 23.038l12.687 14.203-1.481 7.106c-4.774 22.895-23.443 41.734-46.065 46.484-5.988 1.257-30.141 1.472-167.054 1.487l-160.053.017-5.264 2.623c-7.64 3.808-10.629 8.718-10.629 17.468 0 5.872.385 7.284 3 10.996 1.65 2.343 5 5.316 7.445 6.606l4.445 2.347 165.555-.29 165.555-.292 8.294-2.224c10.983-2.946 20.69-7.157 29.224-12.677l6.982-4.517-.017 2.73c-.01 1.502-.68 5.88-1.487 9.73-4.714 22.453-23.544 41.282-45.996 45.996-10.218 2.145-326.532 2.093-336.5-.056zm382.55-196.138c-15.144-18.901-25.882-36.519-29.097-47.733-3.584-12.502 1.417-27.945 12.076-37.293l5.446-4.776.012-23.293.013-23.293-35.25 17.93c-40.034 20.364-43.296 21.465-57.62 19.442-6.977-.985-10.592-2.583-42.263-18.681-19.049-9.683-34.911-17.605-35.25-17.605-.34 0-.617 12.763-.617 28.361v28.362l7.25 3.043c24.426 10.252 44.847 13.74 80.368 13.723l24.118-.01.526 9.546c.384 6.984 1.367 12.056 3.66 18.9 1.723 5.144 2.916 9.57 2.652 9.835-1.2 1.199-28.607 2.372-43.074 1.844-25.34-.925-47.433-4.437-67.267-10.692-14.324-4.517-32.546-13.753-40.784-20.671l-6.949-5.836-.26-48.622-.259-48.621-19.74-10.164c-22.301-11.48-27.349-15.496-31.912-25.387-2.392-5.185-2.82-7.4-2.82-14.61 0-7.213.428-9.427 2.82-14.611 5.52-11.964 4.885-11.573 85.042-52.425 40.08-20.426 74.73-37.841 77-38.7C322.723.86 339.977.63 345.5 2.508c2.2.748 36.85 18.057 77 38.465 80.703 41.021 80.605 40.961 86.121 52.922 2.446 5.304 2.87 7.476 2.87 14.722 0 7.246-.424 9.418-2.87 14.723-4.579 9.929-10.207 14.402-31.861 25.325l-18.74 9.452-.01 33.08-.01 33.081 4.419 3.174c5.622 4.037 9.893 9.437 13.312 16.83 2.214 4.786 2.701 7.273 2.713 13.835.013 6.862-.458 9.104-3.312 15.76-1.83 4.268-6.843 13.043-11.14 19.5-8.221 12.351-23.68 32.24-25.061 32.24-.446 0-4.668-4.814-9.382-10.698zm-72.503-150.052c12.6-6.462 22.917-11.975 22.927-12.25.011-.275-15.068-8.15-33.509-17.5-36.068-18.288-37.313-19.163-39.65-27.905-.98-3.66-.972-5.557.036-9.327 2.628-9.827 9.292-14.814 19.649-14.705 5.785.061 7.67.9 52.5 23.39l46.5 23.325 20.25-10.222c11.137-5.622 20.25-10.593 20.25-11.047 0-.453-9.113-5.424-20.25-11.046-24.82-12.53-64.439-32.721-91.423-46.593-11.096-5.703-21.094-10.37-22.218-10.37-1.124 0-20.846 9.602-43.827 21.337a58828.554 58828.554 0 0 1-66.032 33.67c-13.338 6.784-24.25 12.646-24.25 13.028 0 .382 14.287 7.946 31.75 16.808 17.462 8.862 47.05 23.96 65.75 33.55 18.7 9.59 35.044 17.474 36.32 17.521 1.275.048 12.627-5.201 25.227-11.664z"/></svg>